<?xml version="1.0" encoding="utf-8"?>
<!-- Generator: Adobe Illustrator 26.1.0, SVG Export Plug-In . SVG Version: 6.00 Build 0)  -->
<svg version="1.1" id="Layer_1" xmlns="http://www.w3.org/2000/svg" xmlns:xlink="http://www.w3.org/1999/xlink" x="0px" y="0px"
	 viewBox="0 0 595.28 841.89" style="enable-background:new 0 0 595.28 841.89;" xml:space="preserve">
<style type="text/css">
	.st0{fill:#196D4B;}
</style>
<g>
	<path class="st0" d="M301.02,312.03c0.16-0.03,0.32-0.04,0.49-0.04c0.34,0.34,0.68,0.68,1.02,1.01c1.58,1.15,1.73,1.17,3.13,0.25
		c1.15-0.76,2.23-1.57,2.84-2.87c0.18-0.38,0.45-0.73,0.72-1.06c0.65-0.79,1.22-0.96,2.01-0.65c1.05,0.41,1.57,1.12,1.32,2.18
		c-0.23,0.98-0.66,1.92-1.06,2.86c-0.23,0.55-0.62,1.03-0.84,1.57c-0.38,0.97,0.19,1.68,1.25,1.58c0.33-0.03,0.66-0.17,0.99-0.26
		c0.17,0.17,0.52,0.41,0.49,0.49c-0.41,1.01-0.88,2-1.39,3.13c-0.8,0.08-1.64,0.24-2.48,0.24c-0.89,0-1.44-0.57-1.51-1.43
		c-0.03-0.34,0.07-0.68,0.06-1.02c-0.03-1.13-0.69-1.72-1.8-1.57c-0.42,0.06-0.83,0.19-1.23,0.34c-1.92,0.71-3.86,1.39-5.74,2.19
		c-0.68,0.29-1.22,0.89-1.83,1.34c-1.03,1.04-2.18,1.99-3.07,3.14c-0.93,1.2-2.06,1.77-3.5,1.88c-0.6,0.04-1.2,0.06-1.8,0.1
		c0,0,0.03-0.03,0.03-0.03c0.06-0.86,0.21-1.72,0.17-2.57c-0.03-0.72,0.28-1.77-0.65-2.03c-0.97-0.27-1.18,0.77-1.54,1.41
		c-0.3,0.52-0.53,1.09-0.83,1.6c-0.17,0.29-0.41,0.68-0.68,0.74c-1.65,0.38-2.57,1.57-3.52,2.81c-0.29,0.37-0.85,0.56-1.33,0.75
		c-1.86,0.73-3.5,1.82-5.07,3.03c0,0,0-0.01,0-0.01c-0.33-0.03-0.67-0.05-1-0.08c-0.74-1.36-1.3-2.72-0.11-4.12
		c0.25,0.05,0.51,0.09,0.76,0.15c1.48,0.35,2.19,0.02,2.5-1.3c0.36-1.5,0.62-3.02,0.92-4.53c0.21-0.27,0.36-0.65,0.63-0.79
		c1.59-0.83,2.58-2.2,3.47-3.69c0.26-0.44,0.57-0.86,0.93-1.23c0.92-0.94,1.54-2.01,1.79-3.34c0.12-0.64,0.57-1.23,0.86-1.84
		c1.3-0.13,2.55,0.08,3.8,0.44c0.45,0.13,0.97,0.02,1.38,0.02c0.84-1.64,1.61-3.15,2.28-4.45c0.73-0.22,1.19-0.36,1.74-0.53
		c-0.12-1-0.21-1.85-0.31-2.69c0.82-0.98,1.64-1.96,2.59-3.11c-0.95-1.38-0.32-2.58,0.47-3.78c0.42-0.64,0.7-1.38,1.11-2.03
		c0.22-0.35,0.54-0.67,0.88-0.91c0.45-0.31,1.03-0.36,1.43,0.03c0.27,0.26,0.43,0.73,0.46,1.12c0.03,0.41-0.11,0.85-0.24,1.25
		c-0.48,1.41-0.61,2.85-0.49,4.32c-0.52,1.04-1.05,2.07-1.57,3.11c-0.16,0.52-0.31,1.05-0.47,1.57c0,0,0-0.01,0-0.01
		c-0.2,0.5-0.4,0.99-0.59,1.49c-0.16,0.36-0.33,0.73-0.49,1.09c-0.35,0.76-0.15,1.52,0.01,2.28c0.16,0.75-0.07,1.37-0.65,1.84
		c-1.13,0.92-2.25,1.87-3.43,2.72c-1.06,0.76-2.1,1.52-2.73,2.69c-0.24,0.46-0.43,0.97,0.23,1.53c0.37-0.21,0.84-0.39,1.21-0.7
		c1.32-1.11,2.59-2.26,3.9-3.38c0.22-0.19,0.53-0.27,0.87-0.44c0.09,1.95-1.9,2.77-2.04,4.38c0.2,0.13,0.27,0.22,0.34,0.22
		c0.25-0.02,0.55,0.01,0.74-0.12c1.38-0.93,2.54-2.05,3.17-3.63C300.35,313.8,300.68,312.91,301.02,312.03z"/>
	<path class="st0" d="M309.82,263.17c0.03-1.37,0.01-2.73,0.66-4.02c0.43-0.86-0.03-1.49-1.04-1.54c-1.37-0.07-2.75-0.02-4.12-0.1
		c-0.76-0.04-1.53-0.19-2.26-0.41c-0.63-0.19-0.83-1-0.4-1.48c0.4-0.44,0.85-0.85,1.31-1.22c0.71-0.57,1.11-1.31,1.21-2.2
		c0.19-1.7,0.37-3.41,0.47-5.12c0.08-1.37,0.06-2.75,0.01-4.12c-0.07-2.23-0.13-4.44,0.24-6.67c0.4-2.39,0.03-4.79-0.29-7.17
		c0.16-0.9,0.31-1.8,0.47-2.7c0.02,0.34,0.02,0.69,0.08,1.03c0.07,0.37-0.09,0.88,0.48,1.01c0.82-1.88,2.1-3.53,2.63-5.52
		c0.04,0.43,0.05,0.86,0.12,1.28c0.55,3.16,0.45,6.3-0.02,9.47c-0.29,1.93-0.11,3.93-0.11,5.9c0,0.29,0.22,0.58,0.43,1.12
		c0.35-0.43,0.66-0.65,0.71-0.91c0.17-0.84,0.32-1.69,0.33-2.54c0.06-3.69,0.09-7.38,0.09-11.07c0-1.03-0.09-2.06-0.2-3.08
		c-0.03-0.29-0.29-0.55-0.51-0.95c-0.37,0.33-0.62,0.55-0.86,0.77c-0.27-2.95,0.94-5.68,1.23-8.55c0.02-0.24,0.15-0.51,0.31-0.69
		c0.98-1.11,1.06-2.46,1.09-3.83c0.67,0.99,0.54,2.11,0.54,3.22c0.01,2.13-0.08,4.27,0.91,6.26c-0.02,1.9,0.28,3.76,0.59,5.64
		c0.29,1.76,0.18,3.59,0.27,5.39c0.12,2.32,0.17,4.65,0.43,6.95c0.26,2.37,0.04,4.63-0.92,6.82c-0.66,1.5-1.24,3.02-1.29,4.7
		c-0.03,1.24-0.5,2.35-1.28,3.32c-0.16,0.2-0.33,0.4-0.47,0.62c-0.68,1.05-0.42,1.72,0.84,2.09c0.58,0.17,1.17,0.3,1.76,0.39
		c1.22,0.2,2.28,0.77,3.29,1.43c1.11,0.73,1.29,1.52,0.61,2.62c-0.23,0.36-0.55,0.66-0.8,1.01c-0.65,0.92-0.43,1.57,0.69,1.94
		c1.56,0.5,3.13,0.95,4.69,1.44c1.23,0.39,2.46,0.81,3.46,1.69c0.89,0.78,0.98,1.68,0.12,2.43c-1.36,1.19-2.73,2.42-4.73,2.33
		c1.73-0.93,3.06-2.32,4.67-3.73c-0.67-0.42-1.12-0.82-1.65-1.01c-0.55-0.21-1.18-0.17-1.75-0.34c-0.54-0.16-1.04-0.45-1.7-0.74
		c-0.24,0.63-0.41,1.1-0.59,1.56c-1.54-1.14-3.3-1.54-5.17-1.61c0,0,0.03-0.01,0.03-0.01C313.1,263.19,311.5,263.01,309.82,263.17z"
		/>
	<path class="st0" d="M285.45,424.21c-1.25,0.59-2.53,1.1-3.73,1.78c-0.8,0.46-1.53,1.09-2.19,1.75c-2.24,2.21-4.92,3.07-8,2.61
		c-1.71-0.25-2.58-1.3-2.52-3.03c0.04-1.12,0.25-2.22,0.33-3.34c0.02-0.21-0.15-0.6-0.3-0.63c-0.3-0.06-0.77-0.06-0.93,0.13
		c-1.64,1.9-3.8,2.91-6.09,3.76c-1.29,0.48-2.28,0.29-3.22-0.78c-1.91-2.16-1.99-2.61-0.21-4.82c0.59-0.73,1.29-1.38,1.94-2.07
		c0.77-0.26,1.29-0.78,1.63-1.51c0.32-0.69,0.69-1.36,1.03-2.04c0.87,0.16,1.74,0.33,2.6,0.49c-0.75,1.16-1.52,2.3-2.23,3.47
		c-0.22,0.36-0.36,0.81,0.21,1.28c1.44-0.22,2.47-1.34,3.53-2.26c1.19-1.03,1.85-2.47,2.14-4.04c0.18-0.17,0.35-0.34,0.53-0.51
		c0.51-0.37,1.01-0.73,1.52-1.1c1.73-1.54,3.45-3.08,5.18-4.61c0,0,0.01-0.01,0.01-0.01c2.61,0.16,2.67,0.2,2.9,2.58
		c-1.14,1.04-2.29,2.08-3.43,3.12c-0.33,0.19-0.67,0.38-1,0.57c0,0,0.02,0,0.02,0c-0.6,0.33-0.92,0.86-1.1,1.5c0,0-0.01,0-0.01,0
		c-0.48,0.29-1.16,0.4-1.06,1.2c0.14,0.12,0.26,0.25,0.4,0.32c1.69,0.94,1.69,0.94,1.43,2.68c-0.1,0.66-0.17,1.33-0.25,2
		c-0.34,0.78-0.73,1.54-1,2.35c-0.22,0.66,0.13,1.23,0.8,1.35c0.49,0.09,1.05,0.18,1.51,0.04c1.89-0.59,3.77-1.3,5.09-2.84
		c1.48-1.72,3.34-2.28,5.48-2.28c0.02,0.11,0.05,0.21,0.09,0.31c0.33,0.7,0.66,1.4,0.99,2.1c0,0.19-0.01,0.38-0.01,0.57
		C286.86,424.04,286.16,423.86,285.45,424.21z"/>
	<path class="st0" d="M319.62,265.9c0.17-0.46,0.35-0.92,0.59-1.56c0.66,0.29,1.16,0.58,1.7,0.74c0.57,0.17,1.2,0.13,1.75,0.34
		c0.53,0.2,0.98,0.59,1.65,1.01c-1.61,1.41-2.95,2.81-4.67,3.73c-0.69,1.59-0.53,3.14-0.01,4.77c0.89,2.78,2.69,4.98,4.3,7.31
		c0.28,0.4,0.84,0.6,1.18,0.97c0.45,0.5,1.05,1.03,1.16,1.63c0.36,1.91,1.57,3.29,2.79,4.56c2.47,2.57,4.32,5.55,6.17,8.54
		c-0.96,0.75-1.92,0.78-2.91,0.04c-0.26-0.19-0.55-0.34-0.83-0.51c-0.81-0.98-1.62-1.97-2.44-2.95c-0.57-0.69-1.27-1.15-2.21-1.04
		c-1.1,0.13-1.78-0.47-2.26-1.35c-0.75-1.37-1.77-2.47-2.97-3.48c-0.9-0.76-1.62-1.74-2.42-2.62c-0.9-1.21-2.09-1.99-3.55-2.4
		c-0.57-0.16-1.1-0.47-1.64-0.71c0.27-1.82,0.27-1.82,2.01-2.02l0,0.01c1.25,1.23,2.11,1.08,3.14-0.74
		c-1.49-0.84-1.96-2.42-2.61-3.9c-0.21-0.47-0.4-0.95-0.66-1.39c-0.43-0.74-1.11-1.05-1.94-0.99c-0.99,0.07-1.82,0.43-2.35,1.33
		c-0.3,0.51-0.56,1.07-0.94,1.51c-0.4,0.46-0.91,0.37-1.36-0.02c0.09-1.68,1.01-2.86,2.29-3.82c0.27-0.21,0.55-0.4,0.85-0.57
		c1.13-0.65,1.75-1.59,1.8-2.91c0.02-0.42,0.06-0.86,0.19-1.26c0.21-0.67,1.19-0.94,1.69-0.48c0.25,0.23,0.4,0.55,0.63,0.8
		c0.71,0.76,1.18,0.82,1.96,0.13c0.49-0.43,0.88-0.98,1.44-1.61C320.54,266.58,320.08,266.24,319.62,265.9z"/>
	<path class="st0" d="M367.18,423.7c0.44-0.7,0.98-1.16,1.89-0.86c1.05,0.34,2.14,0.57,2.96,1.39c-0.6-0.04-1.2-0.06-1.8-0.14
		c-0.88-0.12-1.67-0.04-2.47,0.42c-0.72,0.41-1.57,0.6-2.53,0.95c-0.11,1.17-0.23,2.35-0.32,3.54c-0.05,0.6,0.03,1.21-0.05,1.8
		c-0.15,1.07-0.94,1.45-1.86,0.91c-0.59-0.34-1.14-0.78-1.76-1.04c-0.36-0.15-0.85-0.12-1.25-0.03c-0.28,0.07-0.5,0.38-0.89,0.7
		c0.71,0.59,1.3,1.05,1.85,1.55c0.43,0.39,0.23,1.03-0.34,1.21c-0.69,0.22-1.39,0.24-1.99-0.16c-1.5-1-3.03-1.98-3.92-3.64
		c-0.32-0.59-0.57-1.34-1.08-1.7c-0.96-0.67-1.87-1.54-3.2-1.65c-0.37,0.46-0.73,0.9-1.06,1.31c-0.27-0.07-0.5-0.06-0.58-0.17
		c-1.05-1.28-2.39-2.17-3.77-3.07c-1.65-1.07-3.15-2.38-4.72-3.56c-0.61-0.46-1.25-0.89-1.9-1.29c-1.17-0.7-2.35-1.01-3.6-0.09
		c-0.67,0.49-1.47,0.37-2.23,0.1c0,0,0.02-0.04,0.02-0.04c0.24-0.1,0.53-0.14,0.7-0.3c0.29-0.27,0.7-0.63,0.69-0.93
		c-0.01-0.3-0.44-0.7-0.77-0.85c-2.12-0.9-4.27-1.72-6.4-2.6c-1.1-0.45-2.19-0.93-3.26-1.45c-0.69-0.33-1.33-0.76-2.01-1.14
		c-0.47-0.26-0.95-0.41-1.44-0.06c-0.53,0.39-0.76,0.95-0.6,1.58c0.1,0.4,0.38,0.74,0.58,1.11c0.12,1.2-0.09,2.29-0.99,3.17
		l-0.01-0.06c-0.37-1.55-1.02-2.89-2.53-3.65c-0.36,0.16-0.71,0.33-1.07,0.49c-0.15,0.36-0.3,0.71-0.45,1.07l0,0
		c-0.22,0.66-0.44,1.32-0.65,1.97c-0.13,0.04-0.27,0.07-0.4,0.09c-0.23-0.56-0.52-1.1-0.67-1.67c-0.3-1.16,0.04-2.04,1.09-2.64
		c0.74-0.42,1.58-0.66,2.37-0.99c0.47-0.2,0.99-0.33,1.38-0.63c2.02-1.56,3.74-1.78,5.88-0.61c1.21,0.66,2.37,1.4,3.56,2.1
		c0.45,0.26,0.89,0.53,1.36,0.73c0.95,0.41,1.86,0.31,2.65-0.39c0.5-0.45,0.98-0.91,1.56-1.45c1.71,1.4,2.96,3.18,4.87,4.34
		c0.75-0.99,0.5-2.1,0.84-3.04c0.15,0.04,0.3,0.08,0.45,0.12l0-0.01c0.16,0.37,0.31,0.74,0.47,1.12c0.21,0.37,0.42,0.74,0.63,1.11
		c0.57,1,1.58,1.51,2.42,2.21c0.89,0.74,1.37,1.99,2.28,2.7c1.95,1.51,3.71,3.25,5.95,4.4c0.99,0.51,1.96,0.99,3.02,1.34
		c2.02,0.68,4.24,0.24,6.21,1.21c0.31,0.15,0.82-0.11,1.24-0.18c1.98,0.17,2.31-0.15,2.03-1.98l0.01,0.02
		c0.02-0.87,0.03-1.73,0.05-2.6c0,0-0.01-0.01-0.01-0.01C364.8,424.3,366,424.39,367.18,423.7z"/>
	<path class="st0" d="M287.54,424.31c0-0.19,0.01-0.38,0.01-0.57c0.83-0.38,1.66-0.76,2.49-1.13c0.19-0.15,0.39-0.3,0.58-0.45
		c0.91-0.18,1.59-0.71,1.97-1.52c0.97-2.1,2.9-3.11,4.73-4.21c0.31-0.18,0.76-0.12,1.1-0.16c0.47,0.97,0.08,1.7-0.22,2.39
		c-1.16,2.63-0.82,5.4-0.85,8.14c0,0.17,0.05,0.34,0.09,0.51c0.28,1.01,0.99,1.6,2.08,1.55c0.49-0.02,0.98-0.27,1.47-0.41
		c1.5-0.28,2.68,0.18,3.54,1.47c0.23,0.35,0.5,0.71,0.83,0.97c0.67,0.54,0.88,1.17,0.81,2.02c-0.06,0.7,0.48,0.8,1.05,0.71
		c0.8-0.27,1.65-0.45,2.29-1.32c-0.39-2,1.07-3.52,1.77-5.31c0.08-0.21,0.34-0.37,0.54-0.53c0.7-0.53,1.64-0.15,1.7,0.72
		c0.04,0.59-0.05,1.18-0.09,1.78c-0.94,2.67-1.91,5.32-2.83,8c-0.85,2.46-3.35,3.4-5.58,2.09c-1.17-0.69-2-1.62-2.37-2.92
		c-0.34-1.18-0.99-2.18-1.68-3.17c-0.57-0.82-1.28-1.37-2.31-1.44c-0.26-0.02-0.51-0.05-0.77-0.08c-1.55-0.21-2.48-1.15-2.86-2.6
		c-0.23-0.91-0.28-1.86-0.41-2.79c-0.06-0.42-0.09-0.84-0.12-1.16c-0.64-0.64-1.25-0.47-1.72-0.09c-1.39,1.12-2.97,1.24-4.63,1.01
		C287.94,425.29,287.74,424.8,287.54,424.31z"/>
	<path class="st0" d="M309.31,222.95c-0.54,2-1.81,3.64-2.63,5.52c-0.58-0.13-0.41-0.64-0.48-1.01c-0.07-0.33-0.06-0.68-0.08-1.03
		c0.2-0.82,0.4-1.64,0.59-2.47c0.31-1.41,0.45-2.83,0.32-4.28c-0.15-1.68-0.19-3.37-0.27-5.05c0.06-1.1,0.17-2.2,0.18-3.31
		c0.03-5.12,0.04-10.24,0.07-15.35c0-0.33,0.13-0.67,0.2-1c0.23-0.91,0.5-1.81,0.67-2.73c0.23-1.26,0.39-2.54,0.56-3.81
		c0.12-0.83,0.49-1.45,1.33-1.71c0.02,0.16,0.03,0.32,0.04,0.49c0,0.34,0,0.69,0.01,1.03c0,0.34,0,0.69,0,1.03
		c-0.05,1.58-0.13,3.16,0.46,4.67c0.26,1.85,0.46,3.72,0.79,5.56c0.62,3.43,1.29,6.86,0.88,10.37c-0.03,1.37-0.12,2.72-1.09,3.83
		c-0.16,0.18-0.29,0.45-0.31,0.69c-0.29,2.87-1.5,5.6-1.23,8.55L309.31,222.95z"/>
	<path class="st0" d="M326.38,312.46c0.68,0.65,1.36,1.31,2.05,1.96c0.82,0.76,1.61,1.55,2.48,2.25c1.03,0.83,1.93,0.89,2.54,0.28
		c0.62-0.62,0.61-1.42-0.07-2.6c-0.21-0.37-0.47-0.72-0.69-1.09c-0.18-0.3-0.34-0.6-0.48-0.91c-0.11-0.23-0.19-0.48-0.28-0.72
		c0-0.93,0.59-1.59,1.02-2.33c0.26-0.44,0.53-0.88,0.73-1.36c0.32-0.78,0.21-1.52-0.41-2.13c-0.31-0.3-0.66-0.56-0.94-0.88
		c-0.42-0.48-0.37-1.14,0.14-1.6c0.31-0.29,0.71-0.48,1.07-0.72c1.41-0.47,2.45-0.05,3.25,1.21c0.35,0.55,0.95,0.94,1.44,1.41
		c0.49,0.8,1.13,1.54,1.42,2.41c0.51,1.5-0.24,2.73-1.73,3.22c-0.08,0.03-0.17,0.02-0.25,0.04c-1.94,0.54-2.27,0.98-1.76,2.85
		c0.29,1.06,0.81,2.06,1.28,3.07c0.18,0.38,0.52,0.69,0.73,1.06c0.44,0.8,0.58,1.65,0.01,2.43c-0.6,0.83-1.51,1.33-2.47,1.01
		c-1.78-0.59-3.56-1.17-5.4-1.56c-0.23-0.05-0.41-0.3-0.61-0.46c-1.08-1.58-2.53-2.51-4.48-2.6c-0.26-0.01-0.51-0.04-0.76-0.1
		c-1.01-0.25-1.57-1.23-1.13-2.17c0.24-0.51,0.65-1.06,1.13-1.32C324.86,312.76,325.65,312.66,326.38,312.46z"/>
	<path class="st0" d="M361.5,428.36c-0.42,0.07-0.93,0.33-1.24,0.18c-1.97-0.97-4.19-0.53-6.21-1.21c-1.06-0.36-2.03-0.84-3.02-1.34
		c-2.24-1.15-4-2.89-5.95-4.4c-0.91-0.7-1.39-1.96-2.28-2.7c-0.85-0.7-1.85-1.21-2.42-2.21c-0.21-0.37-0.42-0.74-0.63-1.11
		c-0.16-0.37-0.31-0.74-0.47-1.12c0,0,0,0.01,0,0.01c-0.16-0.35-0.32-0.7-0.47-1.05c0,0,0-0.02,0-0.02
		c1.23-1.73,1.58-1.82,3.63-0.95c0,0.14,0.02,0.28,0.04,0.42c0.58,0.93,1.14,1.88,1.74,2.8c0.7,1.08,1.54,2.02,2.81,2.46
		c1.13,0.65,2.05,1.46,2.87,2.51c0.94,1.21,2.19,2.17,3.31,3.23c0.59,0.87,1.34,1.31,2.4,0.94c0.67-0.23,1.31-0.22,2-0.01
		c1.96,0.58,3.95,1.09,5.92,1.62c0,0-0.01-0.02-0.01-0.02C363.26,427.44,362.34,427.85,361.5,428.36z"/>
	<path class="st0" d="M313.43,428.96c0.03-0.59,0.13-1.19,0.09-1.78c-0.06-0.87-1-1.26-1.7-0.72c-0.2,0.15-0.45,0.31-0.54,0.53
		c-0.69,1.79-2.16,3.31-1.77,5.31c-0.64,0.87-1.49,1.05-2.29,1.32c0.86-2.04,1.72-4.09,2.59-6.13c0.13-0.31,0.24-0.67,0.47-0.91
		c1.27-1.39,1.66-3.15,2.14-4.87c0.59-0.61,0.85-1.35,0.89-2.18c0.19-0.16,0.38-0.33,0.56-0.49c0.42,2.41,0.64,2.63,2.81,2.75
		c0.59,0.03,1.19,0.06,1.78,0.07c0.62,0.02,1.22-0.09,1.49-0.74c0.27-0.65-0.09-1.14-0.53-1.58c-0.12-0.12-0.24-0.24-0.36-0.36
		c1.71-1.19,1.76-1.39,0.98-3.66c-0.2-0.37-0.49-0.72-0.58-1.11c-0.15-0.62,0.07-1.19,0.6-1.58c0.49-0.35,0.97-0.2,1.44,0.06
		c0.67,0.37,1.32,0.81,2.01,1.14c1.07,0.52,2.16,0.99,3.26,1.45c2.13,0.88,4.28,1.7,6.4,2.6c0.34,0.14,0.76,0.55,0.77,0.85
		c0.01,0.31-0.4,0.66-0.69,0.93c-0.17,0.16-0.46,0.2-0.7,0.3c-0.39-0.39-0.83-0.52-1.38-0.37c-0.57,0.16-1.15,0.25-1.72,0.37
		c-0.34-0.77-0.67-1.55-0.99-2.28c-2.22-0.74-2.21-0.72-3.87,0.22c-0.44,0.25-0.96,0.33-1.42,0.56c-0.34,0.17-0.64,0.44-1.01,0.71
		c0.42,0.55,0.73,0.96,1.04,1.36c-1.03,0.33-1.67,1.06-2.05,2.05c-0.7,0.01-1.39,0.02-2.09,0.02c-1.1-0.31-1.96-0.06-2.56,0.99
		C315.5,425.51,314.45,427.23,313.43,428.96z"/>
	<path class="st0" d="M326.38,312.46c-0.73,0.21-1.53,0.31-2.18,0.66c-0.48,0.26-0.89,0.8-1.13,1.32c-0.44,0.94,0.12,1.93,1.13,2.17
		c0.25,0.06,0.51,0.09,0.76,0.1c1.94,0.09,3.4,1.01,4.48,2.6c-1.84-0.69-3.59-1.62-5.58-1.91c-1.03-0.15-1.64-0.92-1.7-1.99
		c-0.05-0.85-0.14-1.73,0.04-2.54c0.2-0.9,0.12-1.68-0.28-2.48c-0.56-1.13-0.71-2.3-0.14-3.48c0.4-0.83,0.22-1.67,0.19-2.53
		c-0.04-1.03,0.45-1.81,1.36-2.31c0.83-0.46,1.76-0.19,2.19,0.66c0.19,0.38,0.38,0.81,0.38,1.21c0.02,1.37,0.19,2.8-0.13,4.09
		C325.35,309.67,325.54,311.07,326.38,312.46z"/>
	<path class="st0" d="M297.45,320.32c0.61-0.46,1.15-1.05,1.83-1.34c1.88-0.8,3.82-1.48,5.74-2.19c0.4-0.15,0.81-0.28,1.23-0.34
		c1.11-0.15,1.77,0.44,1.8,1.57c0.01,0.34-0.09,0.68-0.06,1.02c0.06,0.85,0.62,1.43,1.51,1.43c0.84,0,1.68-0.16,2.48-0.24
		c0.51-1.13,0.98-2.12,1.39-3.13c0.03-0.08-0.31-0.32-0.49-0.49c1.97-1.33,4-2.53,6.28-3.1c0.7,0.47,0.66,1.13,0.5,1.67
		c-0.19,0.63-0.46,1.38-0.95,1.75c-1.34,1.04-2.82,1.91-4.24,2.85c0.05-0.35,0.49-0.67,0.08-1.06c-0.45,0.34-0.14,0.72-0.08,1.08
		c-1.01,1.04-2.28,1.43-3.69,1.46c-1.49,0.03-2.83-0.18-3.89-1.46c-0.78-0.95-1.1-0.94-2.18-0.22c-0.93,0.63-1.72,0.76-2.83,0.32
		c-1.29-0.51-2.67-0.28-3.92,0.43C297.81,320.32,297.63,320.32,297.45,320.32z M316.49,315.67c0.41,0.69,0.99,0.85,1.68,0.64
		c0.19-0.06,0.41-0.34,0.43-0.53c0.02-0.18-0.17-0.52-0.33-0.56C317.63,315.02,316.99,314.97,316.49,315.67z"/>
	<path class="st0" d="M357.98,415.43c0.56,0.63,1.15,1.24,1.64,1.92c0.14,0.2,0.1,0.73-0.07,0.89c-0.18,0.17-0.68,0.23-0.91,0.1
		c-1.42-0.78-2.69-1.76-3.64-3.09c-0.29-0.41-0.52-0.87-0.77-1.31c-0.15-0.3-0.22-0.71-0.46-0.89c-1.15-0.87-1.68-2.08-2.19-3.37
		c-0.43-1.1-1.14-2.08-2-2.9c-0.97,0.08-1.87,0.15-2.72,0.21c-0.54,1.07-0.14,1.93,0.33,2.74c0.81,1.4,1.67,2.77,2.51,4.16
		c-0.77,0.12-1.31-0.18-1.69-0.86c-0.46-0.82-0.89-1.67-1.44-2.41c-0.74-0.99-0.76-2.04-0.59-3.17c0.15-0.98,0.48-1.84,1.44-2.27
		c0.95-0.42,1.39-1.22,1.72-2.12c2.17,3.21,4.31,6.44,6.53,9.62C356.33,413.66,357.2,414.51,357.98,415.43z"/>
	<path class="st0" d="M295.31,303.16c0.1,0.84,0.2,1.69,0.31,2.69c-0.55,0.17-1.01,0.31-1.74,0.53c-0.67,1.3-1.44,2.81-2.28,4.45
		c-0.41,0-0.93,0.11-1.38-0.02c-1.25-0.36-2.5-0.57-3.8-0.44c0.46-1.07,0.9-2.16,1.4-3.21c0.39-0.83,0.84-1.63,1.27-2.45
		c0.78-0.91,1.53-1.85,2.36-2.71c0.53-0.54,1.19-0.95,1.79-1.42c0,0,0,0,0,0c0.17,0.52,0.33,1.03,0.5,1.55
		c0.02,0.16,0.04,0.31,0.07,0.47c-0.66,0.76-1.34,1.5-1.97,2.28c-0.45,0.54-0.38,0.84,0.33,1.79
		C293.25,305.51,293.82,303.89,295.31,303.16z"/>
	<path class="st0" d="M286.48,421.33c-2.14-0.01-4,0.56-5.48,2.28c-1.32,1.54-3.2,2.25-5.09,2.84c-0.46,0.14-1.02,0.05-1.51-0.04
		c-0.67-0.13-1.02-0.69-0.8-1.35c0.27-0.8,0.66-1.57,1-2.34c0.59-0.09,1.2-0.12,1.76-0.3c0.74-0.23,1.05-0.82,0.87-1.63
		c-0.09-0.41-0.35-0.77-0.53-1.16c0.69,0.09,1.33,0.26,1.7,0.94c0.16,0.3,0.3,0.61,0.51,0.88c0.64,0.81,1.35,1.01,2.2,0.38
		c1.06-0.79,2.23-1.18,3.49-1.42C285.47,420.22,286.05,420.6,286.48,421.33z"/>
	<path class="st0" d="M357.98,415.43c-0.78-0.91-1.65-1.76-2.33-2.75c-2.21-3.18-4.36-6.41-6.53-9.62
		c-0.14-0.62-0.01-1.14,0.54-1.51c0.27,1,0.74,1.87,1.47,2.63c0.7,0.73,1.29,1.56,1.97,2.3c0.45,0.49,0.95,0.96,1.48,1.36
		c0.31,0.24,0.73,0.48,1.06,0.11c0.07-0.99,0.13-1.91,0.19-2.82c0.72,1.89,1.72,3.54,3.61,4.49c0.92,0.46,1.42,1.22,1.57,2.23
		c-0.54-0.41-1.07-0.86-1.64-1.24c-0.54-0.36-1.14-0.39-1.69,0c-0.54,0.39-0.72,0.98-0.56,1.6c0.15,0.57,0.47,1.1,0.63,1.68
		C357.89,414.4,357.91,414.92,357.98,415.43z"/>
	<path class="st0" d="M349.69,413.89c-0.84-1.38-1.7-2.76-2.51-4.16c-0.47-0.82-0.87-1.68-0.33-2.74c0.86-0.07,1.76-0.14,2.72-0.21
		c0.87,0.82,1.58,1.8,2,2.9c0.5,1.29,1.04,2.5,2.19,3.37c0.24,0.18,0.31,0.59,0.46,0.89c-1.23-0.17-2.48,0.25-3.71-0.18
		c-0.1-0.04-0.28,0.15-0.43,0.23C349.96,413.96,349.82,413.93,349.69,413.89z"/>
	<path class="st0" d="M319.07,419.17c0.12,0.12,0.24,0.24,0.36,0.36c0.44,0.44,0.8,0.93,0.53,1.58c-0.27,0.65-0.87,0.75-1.49,0.74
		c-0.59-0.01-1.19-0.04-1.78-0.07c-2.17-0.13-2.39-0.35-2.81-2.75c0.02-0.14,0.04-0.28,0.05-0.42c0.14-0.02,0.27-0.05,0.4-0.09
		c0.22-0.66,0.44-1.32,0.65-1.97c0,0,0,0,0,0c0.15-0.36,0.3-0.71,0.45-1.07c0.36-0.16,0.71-0.33,1.07-0.49
		c0.84,1.22,1.69,2.43,2.53,3.65c0,0,0.01,0.06,0.01,0.06C319.05,418.84,319.06,419.01,319.07,419.17z"/>
	<path class="st0" d="M363.54,426.4c-1.98-0.54-3.96-1.05-5.92-1.62c-0.69-0.2-1.34-0.22-2,0.01c-1.07,0.37-1.82-0.07-2.4-0.94
		c0.35-0.36,0.7-0.72,1.05-1.08c0.1-0.91,0.2-1.83,0.3-2.78c0.37-0.21,0.59,0.1,0.77,0.37c0.29,0.43,0.54,0.88,0.81,1.32
		c0.66,1.07,1.61,1.66,2.83,1.24c1.75-0.6,3.21-0.08,4.62,0.88C363.58,424.67,363.56,425.53,363.54,426.4z"/>
	<path class="st0" d="M275.67,331.15c1.57-1.21,3.2-2.31,5.07-3.03c0.47-0.18,1.04-0.38,1.33-0.75c0.95-1.24,1.88-2.44,3.52-2.81
		c0.27-0.06,0.5-0.46,0.68-0.74c0.31-0.52,0.54-1.08,0.83-1.6c0.37-0.64,0.58-1.69,1.54-1.41c0.94,0.26,0.62,1.31,0.65,2.03
		c0.04,0.85-0.1,1.71-0.17,2.57c-0.24-0.25-0.45-0.52-0.71-0.74c-0.37-0.31-0.79-0.28-1.17,0c-0.14,0.1-0.28,0.21-0.37,0.35
		c-1.2,1.78-3.02,2.73-4.86,3.66c-0.91,0.46-1.8,0.98-2.71,1.45C278.16,330.72,277.03,331.35,275.67,331.15z"/>
	<path class="st0" d="M295.31,303.16c-1.49,0.73-2.06,2.35-3.15,3.5c-0.72-0.95-0.78-1.25-0.33-1.79c0.64-0.78,1.31-1.52,1.97-2.28
		c1.39-0.76,2.13-2.02,2.4-3.5c0.43-2.4,2.08-4.12,3.2-6.13c0.35-0.62,1.02-0.89,1.76-0.91c0.84-0.02,1.55,0.46,1.71,1.27
		c0.1,0.5,0.14,1.04,0.06,1.53c-0.3,1.78-0.56,3.58-1.42,5.2c-0.12-1.47,0.01-2.91,0.49-4.32c0.14-0.4,0.28-0.84,0.24-1.25
		c-0.03-0.39-0.19-0.86-0.46-1.12c-0.4-0.39-0.98-0.34-1.43-0.03c-0.34,0.24-0.66,0.56-0.88,0.91c-0.41,0.65-0.69,1.39-1.11,2.03
		c-0.79,1.2-1.41,2.4-0.47,3.78C296.95,301.19,296.13,302.18,295.31,303.16z"/>
	<path class="st0" d="M301,428.43c-0.49,0.14-0.97,0.39-1.47,0.41c-1.09,0.05-1.81-0.53-2.08-1.55c-0.05-0.17-0.09-0.34-0.09-0.51
		c0.04-2.74-0.3-5.51,0.85-8.14c0.3-0.68,0.68-1.41,0.22-2.39c-0.34,0.04-0.8-0.03-1.1,0.16c-1.84,1.1-3.76,2.11-4.73,4.21
		c-0.38,0.82-1.07,1.34-1.97,1.52c0.99-1.4,1.99-2.79,2.96-4.2c0.53-0.77,1.01-1.58,1.51-2.38c0.79-1.26,1.69-1.62,3.04-1.19
		c1.08,0.34,1.57,0.99,1.37,2.13c-0.2,1.18-0.46,2.37-0.86,3.49c-0.65,1.82-0.78,3.69-0.74,5.58c0.04,1.98,0.5,2.42,2.59,2.79
		C300.66,428.41,300.83,428.42,301,428.43z"/>
	<path class="st0" d="M342.43,412.43c-2.06-0.87-2.41-0.77-3.63,0.95c-0.65-1.21-1.32-2.42-1.93-3.65c-0.22-0.45-0.37-0.98-0.4-1.48
		c-0.07-1.3,0.8-2.14,2.08-2c0.59,0.07,1.16,0.3,1.74,0.46c0.51,0.93-0.68,1.26-0.73,2.11c0.4,0.24,0.81,0.55,1.26,0.76
		c1.18,0.56,1.87,1.46,2.04,2.76C342.72,412.38,342.58,412.41,342.43,412.43z"/>
	<g>
		<path class="st0" d="M350.67,416.52c-0.01-0.33-0.02-0.65-0.03-0.98c-0.13-0.35-0.27-0.71-0.4-1.06
			c-0.06-0.16-0.11-0.32-0.14-0.48c0.14-0.08,0.33-0.27,0.43-0.23c1.22,0.43,2.48,0,3.71,0.18c0.25,0.44,0.48,0.9,0.77,1.31
			c0.95,1.34,2.23,2.31,3.64,3.09c0.23,0.13,0.73,0.07,0.91-0.1c0.17-0.17,0.21-0.7,0.07-0.89c-0.49-0.68-1.09-1.29-1.64-1.92
			c-0.07-0.51-0.09-1.03-0.23-1.52c-0.16-0.57-0.48-1.1-0.63-1.68c-0.16-0.62,0.02-1.21,0.56-1.6c0.54-0.4,1.15-0.36,1.69,0
			c0.57,0.38,1.09,0.82,1.64,1.24c0,0,0,0,0,0c0.35,0.51,0.71,1.02,1.06,1.54c0,0,0-0.01,0-0.01c0.26,0.77,0.75,1.31,1.53,1.57
			c1.75,0.29,3.22,1.26,4.56,2.28c1.25,0.96,2.6,1.65,3.97,2.34c1.46,0.73,2.94,1.41,4.41,2.11c0.35,0.16,0.7,0.32,1.05,0.49
			c0,0,0-0.01,0-0.01c1.01,0.87,2.24,1.25,3.5,1.55c0.92,0.22,1.86,0.38,2.75,0.69c1.64,0.56,3.28,1,5.04,0.96
			c0.98-0.02,1.87,0.27,2.6,0.96c0,0,0.03-0.02,0.03-0.02c-3.79,0.02-7.58,0.04-11.38,0.07c-1.4-0.33-2.81-0.62-4.19-0.99
			c-1.31-0.35-2.61-0.78-3.91-1.17c-0.82-0.82-1.91-1.05-2.96-1.39c-0.91-0.29-1.45,0.17-1.89,0.86c-1.2,0.03-2.4,0.06-3.59,0.09
			c0,0,0.01,0.01,0.01,0.01c-1.41-0.96-2.86-1.49-4.62-0.88c-1.22,0.42-2.17-0.17-2.83-1.24c-0.27-0.44-0.52-0.9-0.81-1.32
			c-0.19-0.27-0.4-0.58-0.77-0.37c-0.1,0.95-0.2,1.86-0.3,2.78c-0.88-0.82-1.24-1.91-1.55-3.03c-0.34-0.05-0.67-0.1-1.01-0.14
			c-0.17,0.01-0.33-0.01-0.5-0.05C351.03,418.54,350.85,417.53,350.67,416.52z"/>
		<path class="st0" d="M350.12,407.43c0.71,0.14,1.43-0.14,2.14-0.12c0.17,0.19,0.32,0.4,0.51,0.58c0.63,0.58,1.42,1.03,2.28,1.42
			c0.14,0.06,0.42,0.04,0.54-0.05c0.11-0.08,0.16-0.34,0.12-0.43c-0.17-0.32-0.4-0.6-0.61-0.88c0-0.23,0.03-0.47,0-0.68
			c-0.04-0.25-0.15-0.48-0.19-0.72c-0.02-0.13,0-0.25,0.06-0.36c0.06-0.12,0.18-0.23,0.34-0.31c0.31-0.15,0.65-0.09,0.96,0.13
			c0.33,0.24,0.66,0.48,0.95,0.77c0,0,0,0,0,0c0.22,0.3,0.42,0.61,0.65,0.91c0,0,0,0,0,0c0.18,0.44,0.47,0.77,0.91,0.96
			c0.98,0.27,1.82,0.88,2.59,1.52c0.72,0.59,1.49,1.06,2.27,1.51c0.83,0.49,1.67,0.95,2.51,1.42c0.2,0.11,0.4,0.23,0.6,0.34
			c0,0,0,0,0,0c0.5,0.56,1.1,0.86,1.73,1.14c0.45,0.2,0.92,0.37,1.36,0.61c0.81,0.45,1.62,0.83,2.48,0.98
			c0.48,0.08,0.92,0.32,1.28,0.76c0,0,0.02-0.01,0.02-0.01c-1.73,0.19-3.51,0.08-5.24-0.03c-0.36-0.02-0.72-0.05-1.08-0.07
			c-0.77-0.22-1.54-0.42-2.3-0.67c-0.72-0.23-1.43-0.51-2.14-0.76c-0.46-0.46-1.05-0.62-1.63-0.84c-0.49-0.18-0.79,0.01-1.04,0.33
			c-0.65-0.05-1.31-0.09-1.96-0.14c0,0,0,0.01,0,0.01c-0.78-0.57-1.58-0.91-2.52-0.7c-0.66,0.15-1.18-0.21-1.56-0.8
			c-0.16-0.25-0.3-0.5-0.47-0.74c-0.11-0.15-0.23-0.32-0.43-0.24c-0.09,0.43-0.18,0.83-0.27,1.24c-0.49-0.47-0.72-1.07-0.93-1.69
			c-0.18-0.04-0.37-0.08-0.55-0.12c-0.09,0-0.18-0.02-0.27-0.05c-0.27-0.69-0.51-1.4-0.72-2.12c-0.04-0.23-0.08-0.46-0.12-0.7
			c-0.11-0.26-0.21-0.52-0.3-0.79c-0.04-0.12-0.08-0.24-0.11-0.36C350,407.58,350.08,407.45,350.12,407.43z"/>
		<path class="st0" d="M355.83,405.14c-0.06,0.91-0.12,1.83-0.19,2.82c-0.33,0.37-0.75,0.13-1.06-0.11
			c-0.53-0.4-1.03-0.87-1.48-1.36c-0.68-0.75-1.27-1.58-1.97-2.3c-0.73-0.76-1.2-1.63-1.47-2.63c0.28-0.19,0.53-0.42,0.83-0.58
			c0.87-0.47,1.65-0.28,2.27,0.46C353.8,402.65,354.81,403.9,355.83,405.14z"/>
	</g>
	<path class="st0" d="M391.47,426.33c-0.73-0.68-1.62-0.98-2.6-0.96c-1.75,0.04-3.4-0.4-5.04-0.96c-0.89-0.31-1.83-0.47-2.75-0.69
		c-1.26-0.3-2.49-0.67-3.5-1.55c0.59,0.08,1.21,0.05,1.76,0.25c1.47,0.53,2.95,0.77,4.51,0.55c0.49-0.07,1.01,0.09,1.52,0.14
		c1.01,0.08,2.02,0.15,3.03,0.24c0.84,0.08,1.7,0.11,2.52,0.29c1.19,0.26,1.46,0.89,1.01,2.08
		C391.84,425.95,391.63,426.13,391.47,426.33z"/>
	<path class="st0" d="M309.8,180.99c-0.02,1.91-0.03,3.82-0.05,5.73c-0.85,0.25-1.22,0.87-1.33,1.71c-0.18,1.27-0.33,2.55-0.56,3.81
		c-0.17,0.92-0.44,1.82-0.67,2.73c0.02-1.03,0.01-2.07,0.07-3.1c0.12-2.23,0.23-4.47,0.45-6.69c0.13-1.36,0.44-2.71,0.72-4.05
		c0.06-0.29,0.35-0.54,0.64-0.96C309.38,180.52,309.59,180.76,309.8,180.99z"/>
	<path class="st0" d="M338.23,305.23c-0.49-0.46-1.09-0.85-1.44-1.41c-0.81-1.27-1.84-1.69-3.25-1.21c0.75-1.53,0.65-2.95-0.55-4.24
		c-0.22-0.24-0.33-0.59-0.49-0.89c0.28,0.17,0.57,0.31,0.83,0.51c0.99,0.73,1.95,0.71,2.91-0.04c1.02,0.95,1.38,2.19,1.31,3.51
		C337.48,302.79,337.72,304.03,338.23,305.23z"/>
	<path class="st0" d="M276.69,419.62c0.18,0.38,0.44,0.75,0.53,1.16c0.18,0.81-0.12,1.39-0.87,1.63c-0.56,0.18-1.17,0.2-1.76,0.3
		c0.08-0.67,0.16-1.33,0.25-2c0.26-1.74,0.26-1.73-1.43-2.68c-0.14-0.08-0.26-0.21-0.4-0.32c-0.1-0.79,0.58-0.91,1.06-1.2
		C274.94,417.55,275.82,418.59,276.69,419.62z"/>
	<path class="st0" d="M297.45,320.32c0.18,0,0.35,0.01,0.53,0.01c-0.25,0.54-0.39,1.17-0.77,1.61c-0.89,1.05-1.87,2.02-2.85,3
		c-0.75,0.75-1.66,1.23-2.73,1.36c-0.99,0.13-1.9,0-2.55-0.87c0.6-0.03,1.2-0.05,1.8-0.1c1.44-0.11,2.57-0.68,3.5-1.88
		C295.27,322.3,296.42,321.35,297.45,320.32z"/>
	<path class="st0" d="M278.74,321.25c-0.3,1.51-0.57,3.03-0.92,4.53c-0.32,1.33-1.02,1.66-2.5,1.3c-0.25-0.06-0.5-0.1-0.76-0.15
		c0.34-1.1,1.12-1.89,1.93-2.64C277.44,323.42,278.17,322.4,278.74,321.25z"/>
	<path class="st0" d="M342.86,412.35c-0.16-1.3-0.85-2.2-2.04-2.76c-0.45-0.21-0.86-0.52-1.26-0.76c0.05-0.86,1.24-1.18,0.73-2.11
		c1.52,0.48,2.33,1.63,2.92,3.02C343.62,410.69,343.56,411.56,342.86,412.35z"/>
	<path class="st0" d="M380.13,426.38c3.79-0.02,7.58-0.04,11.38-0.07C388.95,427.16,382.71,427.2,380.13,426.38z"/>
	<path class="st0" d="M309.82,263.17c1.68-0.16,3.28,0.02,4.66,1.1C312.73,264.79,311.06,264.91,309.82,263.17z"/>
	<path class="st0" d="M293.23,300.58c-0.6,0.47-1.26,0.88-1.79,1.42c-0.83,0.86-1.58,1.8-2.36,2.71c0.14-1.76,1.43-2.83,2.48-4.02
		C292.01,300.19,292.66,300.32,293.23,300.58z"/>
	<path class="st0" d="M347.03,418.1c-1.27-0.43-2.11-1.38-2.81-2.46c-0.6-0.92-1.16-1.86-1.74-2.8c0.51,0.42,1.1,0.77,1.51,1.27
		C345.04,415.41,346.02,416.77,347.03,418.1z"/>
	<path class="st0" d="M276.68,408.73c0.52-0.34,1.04-0.68,1.56-1.03c0.41,0.28,0.86,0.53,1.23,0.85c1.02,0.9,1.02,1.31,0.11,2.75
		C279.35,408.94,279.3,408.89,276.68,408.73z"/>
	<path class="st0" d="M290.04,422.61c-0.83,0.38-1.66,0.76-2.49,1.13c-0.33-0.7-0.66-1.4-0.99-2.1
		C287.72,421.96,288.88,422.29,290.04,422.61z"/>
	<path class="st0" d="M313.32,419.51c-0.04,0.83-0.3,1.57-0.89,2.18C312.72,420.97,313.02,420.24,313.32,419.51z"/>
	<path class="st0" d="M350.67,416.52c0.18,1.01,0.36,2.02,0.54,3.03C350.5,418.63,350.59,417.58,350.67,416.52z"/>
	<path class="st0" d="M274.08,416.5c0.18-0.64,0.5-1.17,1.1-1.5C274.81,415.51,274.45,416.01,274.08,416.5z"/>
	<path class="st0" d="M363.59,414.97c-0.78-0.26-1.27-0.8-1.53-1.57C362.57,413.92,363.08,414.44,363.59,414.97z"/>
	<path class="st0" d="M362.07,413.4c-0.35-0.51-0.71-1.02-1.06-1.54C361.6,412.21,361.95,412.73,362.07,413.4z"/>
	<path class="st0" d="M293.73,302.12c-0.17-0.52-0.33-1.03-0.5-1.55C293.4,301.09,293.57,301.61,293.73,302.12z"/>
	<path class="st0" d="M302.53,313c-0.34-0.34-0.68-0.68-1.02-1.01C301.85,312.32,302.19,312.66,302.53,313z"/>
	<path class="st0" d="M298.88,306.2c0.2-0.5,0.4-0.99,0.59-1.49C299.28,305.21,299.08,305.71,298.88,306.2z"/>
	<path class="st0" d="M299.47,304.73c0.16-0.52,0.31-1.05,0.47-1.57C299.79,303.68,299.63,304.2,299.47,304.73z"/>
	<path class="st0" d="M274.67,331.06c0.33,0.03,0.67,0.05,1,0.08C275.33,331.11,275,331.09,274.67,331.06z"/>
	<path class="st0" d="M377.59,422.18c-0.35-0.16-0.7-0.32-1.05-0.49C376.88,421.86,377.23,422.02,377.59,422.18z"/>
	<path class="st0" d="M351.71,419.6c0.34,0.05,0.67,0.09,1.01,0.14C352.38,419.69,352.04,419.65,351.71,419.6z"/>
	<path class="st0" d="M350.24,414.48c0.13,0.35,0.27,0.71,0.4,1.06C350.5,415.19,350.37,414.83,350.24,414.48z"/>
	<path class="st0" d="M275.16,415.01c0.33-0.19,0.67-0.38,1-0.57C275.82,414.63,275.49,414.82,275.16,415.01z"/>
	<path class="st0" d="M338.8,413.4c0.16,0.35,0.32,0.7,0.47,1.05c-0.15-0.04-0.3-0.08-0.45-0.12
		C338.82,414.03,338.81,413.72,338.8,413.4z"/>
	<path class="st0" d="M290.13,595.1c0.99-2.54,0.31-4.89-0.94-7.12c-1.07-1.91-3.12-2.7-5.25-2.2c-0.99,0.23-2,0.42-3.02,0.47
		c-1.03,0.05-1.8-0.46-2.15-1.49c0.79-1.26,0.92-2.7,1.07-4.13c0.22-0.81,0.38-1.65,0.68-2.43c0.3-0.78,0.67-1.54,1.13-2.24
		c0.41-0.62,1.35-0.53,1.68,0.15c0.28,0.59,0.39,1.27,0.58,1.91c0.03,0.19,0.06,0.39,0.09,0.58c-0.16,0.49-0.31,0.98-0.48,1.47
		c-0.17,0.49-0.39,1.01,0.05,1.44c0.47,0.45,0.96,0.14,1.4-0.12c0.74-0.44,1.46-0.91,2.19-1.36c0.44-0.27,0.85-0.59,1.32-0.79
		c1.06-0.46,2.07,0,2.05,1.12c-0.04,1.97,1.07,3.61,1.31,5.48c0.11,0.83,0.65,1.37,1.3,1.83c1.09,0.78,1.46,1.89,1.24,3.17
		c-0.18,1.09-0.46,2.17-0.72,3.25c-0.16,0.66-0.43,1.3-0.56,1.97c-0.15,0.82,0.51,1.38,1.25,1.05c0.62-0.27,1.23-0.62,1.77-1.03
		c0.61-0.47,1.14-1.04,1.7-1.57c0.9-0.49,1.78-1.01,2.7-1.46c1.82-0.9,3.53-0.03,3.79,1.98c0.1,0.75-0.08,1.54-0.04,2.3
		c0.03,0.67,0.06,1.39,0.32,1.99c0.5,1.17,1.13,2.3,1.76,3.41c0.2,0.35,0.56,0.75,0.92,0.83c1.34,0.31,1.93,1.33,2.48,2.41
		c0.14,2.06,0.41,4.12,0.4,6.18c-0.03,4.33,0.83,8.54,1.5,12.78c0.18,1.14,0.13,2.23-0.32,3.29c-0.2,1.44-0.33,2.89-0.61,4.32
		c-0.31,1.55-0.29,3.07,0.1,4.6c0.48,1.85,0.52,3.74,0.4,5.64c-0.1,1.63-0.2,3.26-0.3,4.89c-0.06,0.98-0.71,1.38-1.58,0.99
		c-0.86-0.39-1.38-1.04-1.49-1.96c-0.11-0.85-0.15-1.71-0.15-2.57c-0.01-3.18,0.07-6.37-0.01-9.55c-0.04-1.8-0.32-3.59-0.52-5.38
		c-0.03-0.29-0.23-0.57-0.58-1.36c-0.21,1.08-0.4,1.63-0.41,2.17c-0.05,1.72-0.05,3.44-0.04,5.16c0.01,1.41-0.21,2.74-1.02,3.93
		c-0.83,0.32-1.57,0.2-1.93-0.65c-0.62-1.48-1.14-3.01-1.7-4.51c-0.34-0.69-0.69-1.39-1.03-2.08c0,0,0,0,0,0
		c-0.17-0.69-0.35-1.38-0.52-2.07c0,0,0,0.01,0,0.01c0.1-1.27-0.21-2.59,0.49-3.86c0.31-0.09,0.63-0.23,0.96-0.27
		c0.93-0.1,1.35-0.7,1.5-1.52c0.11-0.59,0.21-1.19,0.22-1.79c0.02-1.21-0.07-2.41-0.03-3.62c0.02-0.76,0.16-1.53,0.32-2.28
		c0.04-0.18,0.36-0.4,0.57-0.42c0.21-0.02,0.54,0.12,0.65,0.29c0.23,0.35,0.4,0.76,0.52,1.16c0.38,1.34,0.44,2.71,0.23,4.1
		c-0.13,0.86-0.14,1.72,0.29,2.52c0.41,0.79,1.14,1.04,1.95,0.65c0.88-0.42,1.16-1.03,0.63-1.86c-0.93-1.48-0.95-3.05-0.91-4.72
		c0.05-1.97-0.16-3.95-0.32-5.92c-0.03-0.34-0.4-0.66-0.67-1.07c-0.7,0.5-1.23,0.93-1.81,1.27c-0.76,0.44-1.66-0.08-1.67-0.95
		c-0.01-0.42,0.11-0.84,0.21-1.26c0.11-0.49,0.26-0.97,0.37-1.34c-0.48-0.95-1.33-0.95-2.02-1.26c-0.94-0.42-1.43,0.77-2.37,0.69
		c-0.06-0.9-0.12-1.67-0.17-2.43c0.02-0.82,0.05-1.65,0.07-2.47c1.57-1.65,1.73-3.85,2.26-5.9c0.02-0.07-0.01-0.18-0.05-0.24
		c-0.1-0.13-0.2-0.29-0.34-0.33c-0.14-0.04-0.39-0.02-0.46,0.07c-0.36,0.47-0.7,0.96-0.99,1.47c-0.58,1.02-1.4,1.76-2.55,1.98
		c-2.12,0.41-4.25,0.44-6.35-0.16c-0.89-0.25-1.5-0.79-1.88-1.62c0,0,0,0.01,0,0.01c0.49-0.6,0.71-1.28,0.54-2.05
		c0,0-0.01-0.01-0.01-0.01C289.46,596.15,289.8,595.62,290.13,595.1z"/>
	<path class="st0" d="M298.9,605.92c0.05,0.77,0.11,1.53,0.17,2.43c0.94,0.08,1.43-1.11,2.37-0.69c0.69,0.31,1.54,0.31,2.02,1.26
		c-0.1,0.37-0.25,0.85-0.37,1.34c-0.1,0.41-0.21,0.84-0.21,1.26c0.01,0.87,0.91,1.39,1.67,0.95c0.58-0.34,1.11-0.77,1.81-1.27
		c0.27,0.41,0.64,0.73,0.67,1.07c0.16,1.97,0.38,3.95,0.32,5.92c-0.05,1.67-0.03,3.24,0.91,4.72c0.53,0.83,0.24,1.44-0.63,1.86
		c-0.81,0.39-1.54,0.13-1.95-0.65c-0.42-0.81-0.41-1.66-0.29-2.52c0.21-1.38,0.15-2.75-0.23-4.1c-0.12-0.41-0.29-0.82-0.52-1.16
		c-0.12-0.17-0.44-0.31-0.65-0.29c-0.21,0.02-0.53,0.24-0.57,0.42c-0.16,0.75-0.3,1.52-0.32,2.28c-0.04,1.2,0.05,2.41,0.03,3.62
		c-0.01,0.6-0.11,1.2-0.22,1.79c-0.16,0.83-0.57,1.42-1.5,1.52c-0.33,0.04-0.65,0.18-0.96,0.27c-0.7,1.27-0.39,2.59-0.49,3.86
		c-0.89-1.72-1.11-3.6-1.27-5.47c-0.25-2.81-0.34-5.64-0.61-8.45C297.76,612.49,298.03,609.19,298.9,605.92z"/>
	<path class="st0" d="M305.14,639.1c0.8-1.19,1.03-2.53,1.02-3.93c-0.01-1.72-0.01-3.44,0.04-5.16c0.02-0.55,0.2-1.09,0.41-2.17
		c0.35,0.8,0.55,1.07,0.58,1.36c0.2,1.79,0.48,3.59,0.52,5.38c0.08,3.18,0,6.37,0.01,9.55c0,0.86,0.04,1.72,0.15,2.57
		c0.11,0.91,0.63,1.57,1.49,1.96c0.87,0.39,1.52,0,1.58-0.99c0.1-1.63,0.2-3.26,0.3-4.89c0.12-1.9,0.08-3.79-0.4-5.64
		c-0.4-1.53-0.41-3.04-0.1-4.6c0.28-1.42,0.42-2.88,0.61-4.32c0.41,1.95,0.6,3.87-0.02,5.84c-0.24,0.76-0.07,1.71,0.08,2.54
		c0.51,2.81,0.48,5.64,0.32,8.47c-0.07,1.2-0.03,2.4-0.12,3.6c-0.09,1.18-0.92,1.67-1.99,1.22c-2.33-0.99-2.75-2.13-2.62-3.91
		c0.13-1.71,0.13-3.43,0.1-5.15C307.07,639.49,306.87,639.38,305.14,639.1z"/>
	<path class="st0" d="M309.78,605.98c-0.56-1.08-1.14-2.1-2.48-2.41c-0.36-0.08-0.72-0.48-0.92-0.83c-0.64-1.11-1.26-2.23-1.76-3.41
		c-0.26-0.6-0.28-1.32-0.32-1.99c-0.04-0.77,0.13-1.55,0.04-2.3c-0.26-2-1.96-2.88-3.79-1.98c-0.92,0.45-1.8,0.97-2.7,1.46
		c0.53-0.55,1.01-1.17,1.61-1.63c0.67-0.51,1.41-0.99,2.19-1.27c1.61-0.59,2.89,0.14,3.26,1.85c0.18,0.82,0.21,1.7,0.15,2.54
		c-0.09,1.38,0.29,2.47,1.35,3.41c0.55,0.49,0.93,1.21,1.27,1.89c0.36,0.73,0.81,1.29,1.57,1.59
		C309.43,603.92,309.6,604.95,309.78,605.98z"/>
	<path class="st0" d="M288.61,598.73c0.38,0.82,0.99,1.36,1.88,1.62c2.11,0.6,4.23,0.57,6.35,0.16c1.15-0.23,1.97-0.97,2.55-1.98
		c0.29-0.51,0.63-1,0.99-1.47c0.07-0.09,0.33-0.11,0.46-0.07c0.14,0.04,0.24,0.21,0.34,0.33c0.05,0.06,0.07,0.17,0.05,0.24
		c-0.53,2.05-0.69,4.25-2.26,5.9c0.1-2.36-0.08-2.5-2.3-1.76c-0.63,0.21-1.26,0.44-1.89,0.66c-1.42-0.23-2.85-0.38-4.25-0.71
		c-0.61-0.15-1.22-0.57-1.69-1.01C288.32,600.13,288.36,599.41,288.61,598.73z"/>
	<path class="st0" d="M300.48,631.85c0.34,0.69,0.69,1.39,1.03,2.08C300.89,633.38,300.58,632.67,300.48,631.85z"/>
	<path class="st0" d="M299.96,629.78c0.17,0.69,0.35,1.38,0.52,2.07C300.31,631.17,300.13,630.47,299.96,629.78z"/>
	<path class="st0" d="M309.74,579.99c0.37-0.65,0.74-1.31,1.1-1.96c0.87-1.05,1.51-2.2,1.56-3.61c0,0,0-0.01,0-0.01
		c0.69-1.03,1.37-2.06,2.06-3.09c0,0,0,0,0,0c0.25,0.05,0.49,0.11,0.74,0.15c1.96,0.35,4,0.37,5.8,1.45
		c0.29,0.18,0.81-0.01,1.22-0.03c0,0-0.02-0.05-0.02-0.05c0.48-0.99,0.93-2,1.46-2.96c0.42-0.75,1.18-1,1.97-0.67
		c0.47,0.19,0.88,0.51,1.34,0.73c0.99,0.47,2,0.92,3,1.38c0,0,0,0,0,0c0.88,0.32,1.52,0.08,1.82-0.83c0.13-0.4,0.17-0.83,0.26-1.25
		c0.28-0.68,0.68-1.18,1.53-1.06c0.76,0.11,1.53,0.15,2.28,0.3c1.25,0.24,1.65,1.13,1.04,2.27c-0.2,0.37-0.48,0.71-0.72,1.06
		c-0.72-0.14-1.27-0.88-2.22-0.55c-0.77,1.84-1.04,3.64,0.68,5.23h0c-0.02,0.08-0.03,0.17-0.06,0.25c-0.59,1.43-0.92,1.62-1.97,0.89
		c-0.8-0.56-1.6-0.96-2.58-0.97c-0.76-0.01-1.26-0.43-1.59-1.11c-0.45-0.91-0.87-1.84-1.99-2.44c-0.33,0.43-0.73,0.77-0.89,1.2
		c-0.3,0.8-0.45,1.65-0.67,2.47c-0.15,0.57-0.27,1.17-0.5,1.71c-0.33,0.75-1.25,1.03-1.95,0.6c-0.43-0.26-0.79-0.64-1.16-0.99
		c-0.55-0.53-1.08-1.09-1.62-1.63c0,0,0,0,0,0c-0.74-1.11-1.83-1.52-3.11-1.52c-1.1,0.36-1.83,1.19-2.57,2.01
		c-0.94,1.05-1.03,2.09-0.07,3.17c0,0.17,0,0.33,0,0.5c-0.33,0.52-0.66,1.03-1,1.55c0,0,0,0,0,0c-0.92,0.22-1.84,0.43-2.75,0.66
		c-1.25,0.31-2.39,0.11-3.37-0.77c-0.43-0.38-0.29-1.07,0.27-1.25C307.93,580.51,308.84,580.25,309.74,579.99z"/>
	<path class="st0" d="M284.02,578.6c-0.03-0.19-0.06-0.39-0.09-0.58c0.89-1.51,2.52-2.2,3.98-3.35c-0.42-0.32-0.65-0.62-0.93-0.68
		c-0.75-0.15-1.51-0.19-2.27-0.28c-1.18-0.14-2.36-0.25-3.54-0.43c-1.01-0.15-2.01-0.48-3.02-0.52c-1.7-0.07-3.4,0.02-5.11,0.05
		c2.54-1.52,5.24-1.13,7.94-0.65c0.66,0.12,1.29,0.42,1.94,0.64c0.34,0,0.67,0.01,1.01,0.01c1.18,0,2.37-0.08,3.53,0.04
		c0.99,0.1,1.82-0.08,2.61-0.68c1.58-1.2,3.33-1.61,5.25-0.93c0.94,0.67,1.97,0.76,3.06,0.49c-0.75,1.23-1.79,1.55-3.07,0.89
		c-1.04-0.55-2.08-0.8-3.19-0.25c-0.4,0.2-0.73,0.47-0.58,0.94c0.16,0.17,0.25,0.35,0.39,0.41c1.09,0.41,1.68,1.14,1.6,2.35
		c-0.01,0.08,0,0.17,0.02,0.26c0.23,1.08,0.61,1.39,1.8,1.39c0.34,0,0.67-0.12,1.01-0.18c0.01,0.18,0.02,0.37,0.03,0.55
		c-0.41,0.11-0.82,0.28-1.23,0.31c-1.86,0.15-2.31-0.24-2.66-2.21c-0.06-0.33-0.18-0.64-0.29-0.96c-0.02-0.07-0.12-0.11-0.33-0.3
		C289.02,575.51,286.3,576.54,284.02,578.6z"/>
	<path class="st0" d="M309.74,579.99c-0.9,0.27-1.81,0.52-2.71,0.8c-0.56,0.18-0.7,0.86-0.27,1.25c0.98,0.88,2.12,1.08,3.37,0.77
		c0.92-0.22,1.84-0.44,2.75-0.66c-1.23,1.98-3.09,1.88-4.98,1.43c-0.9-0.22-1.74-0.7-2.59-1.08c-0.86-0.38-1.68-0.86-2.56-1.16
		c-1.48-0.5-2.25-1.47-2.31-3.02c-0.01-0.26-0.04-0.51-0.05-0.77c0,0,0.17-0.09,0.17-0.09c0.05,0.07,0.08,0.15,0.14,0.21
		c1.09,1.12,1.65,1.11,2.23-0.1c0.25-0.52,0.43-1.09,0.64-1.63C304.9,578.4,307.13,579.49,309.74,579.99z"/>
	<path class="st0" d="M319.64,576.45c0.54,0.54,1.07,1.1,1.62,1.63c0.37,0.35,0.73,0.73,1.16,0.99c0.71,0.43,1.62,0.15,1.95-0.6
		c0.24-0.54,0.35-1.14,0.5-1.71c0.22-0.82,0.37-1.68,0.67-2.47c0.16-0.43,0.57-0.77,0.89-1.2c1.11,0.59,1.54,1.52,1.99,2.44
		c0.33,0.67,0.83,1.09,1.59,1.11c0.98,0.02,1.78,0.42,2.58,0.97c1.05,0.73,1.38,0.54,1.97-0.89c0.03-0.08,0.04-0.17,0.06-0.25
		c0.08,0.25,0.21,0.49,0.22,0.74c0.13,2.07-0.66,2.69-2.38,1.65c-1.71-1.03-3.64-0.94-5.44-1.45c-0.75-0.21-1.32,0.19-1.5,1.03
		c-0.21,1.03-0.58,1.81-1.7,1.97c-1.32,0.19-2.44-0.23-3.12-1.36C320.23,578.27,319.99,577.33,319.64,576.45z"/>
	<path class="st0" d="M334.63,576.47c-1.72-1.59-1.45-3.38-0.68-5.23c0.95-0.33,1.51,0.41,2.22,0.55
		C334.95,573.11,334.08,574.56,334.63,576.47z"/>
	<path class="st0" d="M313.88,580.11c-0.95-1.08-0.87-2.12,0.07-3.17c0.74-0.82,1.47-1.65,2.57-2.01c0,0.16-0.01,0.33-0.01,0.49
		C315,576.63,314.38,578.33,313.88,580.11z"/>
	<path class="st0" d="M296.39,578.1c-0.01-0.18-0.02-0.37-0.03-0.55c0.71-0.58,1.39-1.21,2.15-1.73c0.98-0.67,1.59-0.37,1.96,0.89
		c0.07,0.24,0.07,0.5,0.1,0.75c0,0-0.16,0.09-0.17,0.09c-0.64-0.6-1.37-0.65-2.14-0.32C297.62,577.5,297.01,577.81,296.39,578.1z"/>
	<path class="st0" d="M332.04,569.22c-0.08,0.42-0.13,0.85-0.26,1.25c-0.3,0.91-0.94,1.15-1.82,0.83c0.35-0.35,0.7-0.69,1.04-1.04
		C331.35,569.92,331.7,569.57,332.04,569.22z"/>
	<path class="st0" d="M316.52,575.42c0-0.16,0.01-0.33,0.01-0.49c1.28,0,2.37,0.41,3.11,1.52
		C318.6,576.11,317.56,575.77,316.52,575.42z"/>
	<path class="st0" d="M312.89,582.15c0.33-0.52,0.66-1.03,1-1.55C313.92,581.36,313.45,581.78,312.89,582.15z"/>
	<path class="st0" d="M239.47,428.46c-1.64,0.46-3.27,0.98-4.92,1.36c-1.29,0.3-2.55-0.04-3.72-0.62c-0.66-0.32-0.9-1.09-0.59-1.75
		c0.14-0.31,0.31-0.62,0.55-0.85c1.29-1.26,2.69-2.39,4.34-3.14c0.6-0.28,1.35-0.53,1.97-0.41c2.98,0.56,5.57-0.28,7.98-1.94
		c-0.53,0.75-1.1,1.48-1.57,2.26c-0.77,1.27-0.65,1.73,0.6,2.99c-0.83,0.09-1.65,0.19-2.48,0.25
		C240.04,426.72,240.04,426.71,239.47,428.46z"/>
	<path class="st0" d="M255.55,410.94c0.33-0.16,0.67-0.31,1-0.47c0.18-0.01,0.35-0.03,0.53-0.04c-0.02,0.31-0.03,0.62-0.05,0.93
		c-1.92,1.27-2.33,1.78-2.74,3.38c1.33,0.16,1.73,0.18,2.11-0.3c0.35-0.44,0.63-1.01,0.74-1.57c0.1-0.48-0.08-1.01-0.14-1.52
		c1.05,0.35,2.09,0.71,3.14,1.06c-0.63,0.52-1.29,1.03-1.89,1.59c-0.13,0.12-0.17,0.5-0.08,0.67c0.09,0.17,0.41,0.37,0.58,0.34
		c0.64-0.12,1.26-0.34,1.89-0.52c0.06,0.66,0.11,1.32,0.16,1.92c0.34,0.09,0.52,0.21,0.66,0.17c0.58-0.15,1.14-0.35,1.71-0.54
		c-0.34,0.68-0.71,1.35-1.03,2.04c-0.34,0.73-0.86,1.24-1.63,1.51c-0.04-1.05-0.04-1.05-1.45-1.09c0.06-0.76-0.26-1.31-0.91-1.69
		c-0.66-0.39-1.32-0.25-1.94,0.08c-1.19,0.65-2.47,1.2-3.5,2.04c-1.52,1.25-3.3,1.5-5.09,1.98c-0.21-0.56-0.36-0.95-0.52-1.35
		c0.77-0.54,1.58-1.04,2.31-1.64c1.02-0.84,1.95-1.72,1.12-3.27c-0.32-0.6,0.11-1.17,0.63-1.54c0.34-0.24,0.75-0.45,1.15-0.54
		C253.58,412.3,254.57,411.64,255.55,410.94z"/>
	<path class="st0" d="M247.14,419.55c0.15,0.39,0.3,0.79,0.52,1.35c1.79-0.48,3.56-0.73,5.09-1.98c1.03-0.85,2.31-1.39,3.5-2.04
		c0.62-0.34,1.27-0.48,1.94-0.08c0.64,0.38,0.97,0.94,0.91,1.69c-2.07,1.59-4.44,2.79-6.19,4.78c-3.4-0.31-6.42,0.49-8.8,3.09
		c-1.25-1.26-1.37-1.72-0.6-2.99c0.47-0.78,1.05-1.51,1.57-2.26c0,0-0.02,0.04-0.02,0.04c0.54-0.52,1.09-1.03,1.63-1.55
		C246.83,419.57,246.99,419.55,247.14,419.55z"/>
	<path class="st0" d="M244.09,426.35c2.38-2.6,5.4-3.39,8.8-3.09c-0.93,0.39-1.86,0.78-2.82,1.19c0,0.24-0.05,0.5,0.01,0.73
		c0.15,0.56,0.59,1.19-0.12,1.61c-0.65,0.38-1.1-0.23-1.58-0.57c-0.21-0.15-0.39-0.34-0.61-0.47c-0.86-0.56-1.37-0.6-2.06,0.14
		c-1.7,1.83-3.83,2.51-6.24,2.58c0.57-1.75,0.57-1.74,2.15-1.86C242.44,426.54,243.27,426.44,244.09,426.35z"/>
	<path class="st0" d="M323.2,420.7c-0.31-0.4-0.62-0.81-1.04-1.36c0.37-0.27,0.67-0.54,1.01-0.71c0.45-0.22,0.98-0.31,1.42-0.56
		c1.66-0.94,1.66-0.95,3.87-0.22c0.32,0.73,0.66,1.51,0.99,2.28c-0.5-0.13-1-0.24-1.5-0.38c-1.77-0.47-2.73-0.17-3.8,1.24
		c-0.31,0.41-0.52,0.89-0.78,1.33c-0.08-0.06-0.15-0.13-0.23-0.19C323.17,421.66,323.18,421.18,323.2,420.7z"/>
	<path class="st0" d="M319.06,422.77c0.7-0.01,1.39-0.02,2.09-0.02c0.67-0.2,1.33-0.41,2-0.61c0.08,0.06,0.15,0.13,0.23,0.19
		C322.05,423.57,320.58,423.38,319.06,422.77z"/>
	<path class="st0" d="M287.54,424.31c0.2,0.49,0.4,0.98,0.6,1.47c-0.9-0.52-1.79-1.05-2.69-1.57
		C286.16,423.86,286.86,424.04,287.54,424.31z"/>
	<path class="st0" d="M246.68,419.59c-0.54,0.52-1.09,1.03-1.63,1.55C245.27,420.29,245.77,419.72,246.68,419.59z"/>
	<path class="st0" d="M394.1,518.51c-0.77-0.37-1.54-0.72-2.3-1.1c-0.38-0.19-0.73-0.48-1.13-0.58c-0.27-0.06-0.62,0.1-0.88,0.24
		c-0.05,0.03,0.05,0.47,0.17,0.67c0.13,0.21,0.36,0.37,0.57,0.5c1.08,0.67,1.71,1.64,2.03,2.84c-0.7-0.56-1.41-1.12-2.16-1.71
		c-0.98,1.02-0.85,2.13-0.86,3.2c-0.72-0.48-1.44-0.96-2.16-1.43c-0.87-0.88-1.73-1.76-2.6-2.64c-0.51-0.35-1.02-0.7-1.52-1.06
		c0,0,0.01,0.01,0.01,0.01c-0.25-0.64-0.56-1.27-0.75-1.93c-0.41-1.39-1.15-2.44-2.45-3.18c-1.6-0.9-2.51-2.33-2.59-4.21
		c0.22-0.72,0.43-1.44,0.65-2.16c0,0-0.01,0.25-0.01,0.25c-0.13,1.63,0.54,2.77,1.94,3.63c0.94,0.57,1.74,1.39,2.58,2.13
		c0.62,0.55,1.25,0.91,2.1,0.55c0.63-0.27,1.17-0.02,1.69,0.34c1.49,1.01,3.02,1.97,4.48,3.04
		C392.03,516.71,393.04,517.64,394.1,518.51z"/>
	<path class="st0" d="M380.71,506.52c0.51,0.03,1.02,0.13,1.53,0.08c2.37-0.2,3.82,1.09,4.91,2.98c0.3,0.52,0.56,1.05,0.84,1.57
		c0,0-0.1,0.12-0.1,0.12c-2.48-1.45-5.05-2.76-7.23-4.67C380.66,506.6,380.71,506.52,380.71,506.52z"/>
	<path class="st0" d="M377.49,508.13c0.09,1.88,0.99,3.31,2.59,4.21c1.3,0.73,2.04,1.79,2.45,3.18c0.19,0.66,0.5,1.29,0.75,1.93
		c-0.32-0.27-0.76-0.48-0.95-0.83c-1.25-2.31-3.4-3.71-5.29-5.38c-0.17-0.34-0.34-0.69-0.51-1.03c0-0.69,0-1.39,0-2.08
		c0.17,0,0.34,0,0.5,0C377.19,508.13,377.34,508.13,377.49,508.13z"/>
	<path class="st0" d="M378.14,505.97c0.97-0.34,1.81-0.12,2.57,0.55c0,0-0.05,0.08-0.05,0.08c-0.84-0.13-1.69-0.25-2.53-0.38
		L378.14,505.97z"/>
	<path class="st0" d="M383.27,517.43c0.51,0.35,1.02,0.7,1.52,1.06C384.28,518.14,383.78,517.79,383.27,517.43z"/>
	<path class="st0" d="M389.48,511.24c-0.02,0.21-0.03,0.41-0.05,0.62c-0.51-0.2-1.02-0.39-1.53-0.59c0,0,0.1-0.12,0.1-0.12
		C388.49,511.18,388.98,511.21,389.48,511.24z"/>
	<path class="st0" d="M376.53,510.21c0.17,0.34,0.34,0.69,0.51,1.03C376.87,510.9,376.7,510.55,376.53,510.21z"/>
	<path class="st0" d="M377.04,508.13c-0.17,0-0.34,0-0.5,0C376.7,508.13,376.87,508.13,377.04,508.13z"/>
	<path class="st0" d="M401.79,529.39c1.39,0.24,2.52,0.71,3.25,2.15c0.37,0.73,1.39,1.19,2.2,1.64c1.12,0.63,2.27,1.2,2.92,2.39
		c1.2,1.53,2.47,2.98,4.11,4.07c0.07,0.05,0.14,0.1,0.2,0.15c1.57,1.31,1.61,1.68,0.34,3.54c-0.35,0.69-0.69,1.38-1.04,2.07
		c-0.69,0.35-1.38,0.69-2.07,1.04c-1.41-0.25-2.8-0.71-4.23,0.1c-0.72,0.41-1.51,0.14-2.14-0.39c-0.66-0.54-1.26-1.15-1.93-1.67
		c-1.04-0.79-2.13-1.07-3.24-0.08c-0.86,0.76-1.85,0.75-2.89,0.5c-1.47-0.36-1.71-0.75-1.61-2.6c0.39-0.35,0.39-0.69,0-1.04
		c-0.52,0-1.03,0-1.55,0c-0.52-0.35-1.03-0.69-1.55-1.04c-0.69-0.34-1.38-0.69-2.07-1.03c-0.85-0.11-1.8-0.14-2.12-1.14
		c-0.32-0.99-1.05-1.29-1.94-1.43c-1.5-0.23-2.79-0.82-3.69-2.11c0.2-0.02,0.41-0.04,0.61-0.06c1.52,0.58,3.12,1.02,4.53,1.79
		c2.64,1.43,5.57,2.17,8.16,3.69c0.65,0.38,1.44,0.53,2.17,0.78c0.57,0.2,1.17,0.31,1.69,0.59c3.01,1.59,6.36,2,9.59,2.8
		c0.64,0.16,1.39,0.13,2.03-0.03c1.95-0.48,2.65-2.55,1.29-3.96c-2.03-2.1-4.04-4.24-6.3-6.06
		C404.77,532.65,403.19,531.13,401.79,529.39z"/>
	<path class="st0" d="M365.15,537.64c-0.74-0.18-1.47-0.36-2.39-0.58c0,0.5-0.12,0.88,0.02,1.1c1.25,1.97,2.51,3.92,4.95,4.64
		c0.47,0.14,0.91,0.49,1.3,0.81c0.61,0.51,0.74,1.26,0.16,1.8c-1.37,1.27-1.71,2.93-1.98,4.65c-0.86,0-1.72,0-2.59,0
		c-0.81-0.28-1.52-0.16-2.08,0.55c-0.47,0.61-0.9,1.27-1.43,1.82c-0.85,0.89-1.82,1.15-3.03,0.6c-1.64-0.74-3.3-1.44-5-1.98
		c-1.54-0.49-3.16-0.74-4.81-1.11c-0.2-0.7,0.63-0.88,0.83-1.39c3.05-0.01,5.92,0.81,8.76,1.82c1.91,0.68,2.54,0.61,3.8-0.97
		c0.79-1,1.66-1.3,2.89-1.23c1.39,0.08,2-0.79,1.7-2.16c-0.07-0.33-0.16-0.68-0.34-0.97c-1.29-2.11-2.1-4.53-4.05-6.22
		c-0.8-0.69-1.24-1.63-1.34-2.71c-0.04-0.45-0.02-0.92,0.45-1.09c0.28-0.1,0.74-0.1,0.96,0.07
		C363.03,535.9,364.08,536.78,365.15,537.64z"/>
	<path class="st0" d="M382.76,534.52c0.9,1.29,2.18,1.88,3.69,2.11c0.89,0.13,1.62,0.44,1.94,1.43c0.32,1,1.27,1.03,2.12,1.14
		c-0.7,0.92-1.68,1.29-2.78,1.47c-0.98,0.16-1.94,0.4-2.92,0.6c-0.17,0-0.34,0-0.51,0.01c0,0,0,0,0,0c0.01-1.52-0.74-2.58-2.02-3.31
		c-0.52-0.29-1.05-0.56-1.58-0.83c-0.18-0.34-0.36-0.67-0.54-1.01c-0.16-0.35-0.32-0.69-0.48-1.04c-0.01-0.17-0.03-0.35-0.04-0.53
		c0.19-0.37,0.38-0.73,0.57-1.1c0.51,0.02,1.01,0.04,1.52,0.07c0.34,0.34,0.69,0.67,1.03,1.01L382.76,534.52z"/>
	<path class="st0" d="M380.69,537.12c0.53,0.28,1.06,0.54,1.58,0.83c1.28,0.73,2.03,1.79,2.02,3.31c-0.47,0.99-0.67,2.02-0.52,3.1
		c-0.17,0.35-0.34,0.69-0.52,1.04c-0.52,0.17-1.03,0.35-1.55,0.52c-0.34,0-0.69,0-1.03,0c-1.42-1.15-3.18-1.61-4.84-2.19
		c-1.44-0.5-2.58-1.24-3.41-2.5c0.7,0.3,1.4,0.62,2.11,0.9c1.84,0.72,3.74,1.22,5.72,1.16c2.09-0.06,2.9-1.42,1.98-3.31
		c-0.4-0.83-1.06-1.53-1.6-2.3C380.65,537.5,380.67,537.31,380.69,537.12z"/>
	<path class="st0" d="M411.71,546.44c0.69-0.35,1.38-0.69,2.07-1.04c0.81,0.42,2.02,0.69,1.77,1.84c-0.23,1.06-1.49,0.93-2.35,1.21
		c-0.23,0.08-0.51,0.05-0.76,0.04c-0.88-0.03-1.2-0.56-0.95-1.6C411.53,546.74,411.63,546.6,411.71,546.44z"/>
	<path class="st0" d="M383.26,545.41c0.17-0.35,0.34-0.69,0.52-1.04c0.33-0.03,0.66-0.07,1-0.09c0.06,0,0.18,0.09,0.19,0.14
		c0.01,0.15,0.02,0.42-0.04,0.44C384.37,545.07,383.81,545.24,383.26,545.41z"/>
	<path class="st0" d="M395.67,541.27c0.39,0.35,0.39,0.69,0,1.04C395.67,541.96,395.67,541.61,395.67,541.27z"/>
	<path class="st0" d="M415.09,543.61c-0.05-0.03-0.12-0.06-0.16-0.1c-0.05-0.05-0.08-0.12-0.12-0.18c0.06,0.04,0.13,0.07,0.18,0.12
		C415.04,543.5,415.06,543.56,415.09,543.61z"/>
	<path class="st0" d="M381.7,545.93c0.52-0.17,1.03-0.35,1.55-0.52C382.83,545.85,382.33,546.07,381.7,545.93z"/>
	<path class="st0" d="M384.29,541.27c0.17,0,0.34-0.01,0.51-0.01c-0.08,0.13-0.17,0.27-0.25,0.4
		C384.47,541.54,384.38,541.41,384.29,541.27z"/>
	<path class="st0" d="M380.63,537.7c0.54,0.76,1.2,1.47,1.6,2.3c0.91,1.89,0.1,3.25-1.98,3.31c-1.98,0.06-3.88-0.45-5.72-1.16
		c-0.71-0.28-1.41-0.6-2.11-0.9c0,0,0.01,0.02,0.01,0.02c-1.01-1.44-2.63-1.67-4.16-2.07c0,0,0.01,0.01,0.01,0.01
		c-1.04-0.52-2.08-1.03-3.11-1.55c0,0,0,0,0,0c-1.07-0.86-2.12-1.74-3.23-2.55c-0.22-0.17-0.68-0.17-0.96-0.07
		c-0.47,0.17-0.5,0.64-0.45,1.09c0.11,1.07,0.54,2.02,1.34,2.71c1.96,1.69,2.76,4.11,4.05,6.22c0.17,0.29,0.26,0.64,0.34,0.97
		c0.3,1.36-0.3,2.23-1.7,2.16c-1.23-0.07-2.09,0.24-2.89,1.23c-1.25,1.58-1.88,1.65-3.8,0.97c-2.83-1.01-5.71-1.83-8.76-1.82
		c-0.31-0.04-0.63-0.09-0.94-0.13c-0.03-0.13-0.07-0.25-0.11-0.38c-0.69-1.05-1.77-1.84-2.06-3.16c1.05,0.16,2.1,0.32,3.15,0.48
		c0.33,0.02,0.66,0.05,0.98,0.07c0.19,0.17,0.36,0.4,0.58,0.49c1.05,0.46,1.56,0.12,1.63-1.07c0.01-0.16-0.08-0.33-0.13-0.49l0,0
		c-0.37-0.51-0.73-1.02-1.1-1.53c-1.33-0.91-2.66-0.81-3.99-0.01c-0.37,0.68-0.74,1.37-1.11,2.05c-0.58-0.01-1.18-0.08-1.75,0
		c-0.29,0.04-0.71,0.31-0.77,0.55c-0.29,1.18-0.99,2.38-0.03,3.58c-0.07,1.1-0.74,1.64-1.7,2.02c-2.01,0.8-4.1,1.23-6.23,1.52
		c-1.35,0.19-2.7,0.44-4.03,0.74c-1.61,0.36-3.21,0.45-4.85,0.21c-3.05-0.46-6.16-0.41-9.15-1.29c-0.81-0.24-1.33,0.25-1.36,1.08
		c-0.02,0.51,0.06,1.03,0.05,1.54c-0.02,0.85-0.47,1.44-1.17,1.88c-0.84,0.53-1.65,0.51-2.34-0.19c-0.41-0.42-0.76-0.93-1.07-1.44
		c-0.9-1.49-2.14-2.41-3.93-2.56c-0.68-0.05-1.34-0.29-2.01-0.44c-1.18-0.47-2.35-0.97-3.54-1.41c-1.19-0.44-2.4-0.88-3.63-1.2
		c-1.2-0.31-1.84-0.05-2.24,1.07c-0.49,1.38-1.45,2.27-2.52,3.12c0,0,0,0,0,0c-1.13,0.35-2.25,0.72-3.39,1.04
		c-0.62,0.18-1.29,0.52-1.89-0.09c0.24-1.88,0.24-1.88,2.2-2.98l-0.02-0.01c0.51-0.18,1.02-0.37,1.53-0.55
		c0.36-0.78,0.24-1.5-0.31-2.14c-0.28-0.32-0.59-0.62-0.9-0.9c-1.77-1.62-2.55-3.54-1.98-5.97c0.23-0.98,0.26-2.03,0.28-3.05
		c0.01-0.76-0.51-1.01-1.22-0.9c-0.31,0.13-0.65,0.22-0.94,0.39c-1.43,0.84-2.46,2.1-3.36,3.43c-0.78,1.15-1.76,1.79-3.12,1.92
		c-0.59,0.05-1.18,0.16-1.75,0.32c-0.97,0.28-1.29,1.22-0.64,1.99c0.43,0.5,1.03,0.86,1.55,1.28l0,0c0.14,2.58,1.62,4.03,3.99,4.74
		c0.65,0.2,1.32,0.36,1.95,0.63c0.74,0.31,1.08,1.02,0.9,1.65c-0.2,0.67-0.72,1.01-1.35,0.99c-2.63-0.09-5.11-0.53-6.65-3.07
		c-0.52-0.86-1.27-1.58-1.92-2.36l0,0c-0.39-0.84-0.72-1.72-1.18-2.53c-0.43-0.75-1.14-0.97-1.98-0.67
		c-0.35,0.35-0.7,0.71-1.05,1.06c-0.16,0-0.32,0.01-0.48,0.01c0.26-1.18,0.95-1.99,2.08-2.43c0.4-0.16,0.8-0.31,1.18-0.51
		c0.46-0.25,0.55-0.89,0.25-1.36c-0.4-0.62-0.98-0.97-1.7-1.03c-0.59-0.05-1.2-0.03-1.79,0.04c-1.69,0.23-3.02-0.41-4.1-1.66
		c-0.45-0.52-0.83-1.1-1.32-1.57c-0.28-0.27-0.73-0.51-1.09-0.5c-0.58,0.01-0.85,0.55-0.97,1.06c-0.33,1.45-0.07,2.79,1.19,3.68
		c1.21,0.85,1.87,1.97,2.14,3.38c-0.37-0.46-0.72-0.93-1.11-1.37c-1.43-1.61-3.3-1.99-5.22-0.95c-0.88,0.47-1.66,1.13-2.48,1.71
		c-0.67,0.38-1.38,0.68-1.99,1.14c-2.13,1.58-4.36,1.99-6.73,0.62c-1.14-0.66-2.36-0.99-3.64-1.23c-1.87-0.35-2.65-1.42-2.39-3.33
		c0.18-1.36,0.61-2.68,0.9-4.03c0.47-2.12-0.55-3.13-2.69-2.61c-1,0.24-1.96,0.64-2.93,1c-1.86,0.7-3.66,0.99-5.31-0.54
		c-0.57-0.52-1.24-0.41-1.94-0.16c-1.05,0.38-2.13,0.67-3.19,0.99l-0.09-0.14c0.97-0.55,1.97-1.07,2.92-1.65
		c1.16-0.71,2.24-0.8,3.29,0.2c0.84,0.8,1.83,0.8,2.89,0.52c1.41-0.38,2.83-0.72,4.26-1.02c0.58-0.12,1.2-0.2,1.78-0.13
		c1.64,0.2,2.39,1.25,2.14,2.88c-0.09,0.59-0.31,1.17-0.35,1.77c-0.02,0.28,0.17,0.72,0.4,0.84c0.24,0.13,0.68,0.07,0.95-0.06
		c0.37-0.18,0.69-0.5,1-0.8c0.5-0.48,0.97-0.98,1.45-1.47c0.15,0.51,0.29,1.02,0.44,1.53c0.2,0.51,0.39,1.03,0.59,1.54
		c0,0.17,0.01,0.35,0.01,0.52c-2.67-0.09-4.01,0.91-4.2,3.13c1.85,0.61,3.68,1.28,5.55,1.81c2.11,0.6,4.02-0.2,5.35-2.08
		c0.6-0.85,0.32-1.65-0.77-1.9c-0.84-0.19-1.69-0.28-2.33-0.93c0.35-0.34,0.69-0.68,1.04-1.03c0,0,0,0,0,0
		c0.73,0.21,1.45,0.52,2.19,0.6c0.58,0.06,1.21-0.13,1.24-1.01c-0.41-0.73-1.64-1.02-1.37-2.21c1.38-0.67,2.74-1.36,4.13-1.99
		c2.31-1.05,4.27-0.49,5.85,1.5c0.73,0.92,1.62,1.72,2.44,2.57l0.01,0.01c2.81,1.03,3.79,0.77,5.76-1.5c0.3-0.19,0.6-0.38,0.9-0.58
		c0.19-0.2,0.37-0.4,0.56-0.6c1.47-0.88,2.86-1.14,3.99,0.53c0.05,0.07,0.12,0.13,0.18,0.18c0.8,0.65,1.61,0.65,2.21-0.21
		c1.37-2,3.26-3.45,5.06-5l-0.03-0.02c0.26-0.01,0.51-0.04,0.77-0.02c2.3,0.14,3.08,0.86,3.29,3.08c0.08,0.85,0.09,1.71,0.13,2.57
		c-0.04,0.16-0.07,0.33-0.08,0.49c-0.37,1.96-0.18,2.29,1.49,2.7c0.9,0.22,1.8,0.43,2.69-0.05c0,0-0.02,0-0.02,0
		c0.34-0.18,0.68-0.37,1.01-0.55c0,0,0.08,0.06,0.08,0.06c1.1-0.09,2.2-0.14,3.29-0.28c1.82-0.24,1.86-0.31,2.33-2.38l0.01,0.01
		c0.18-0.51,0.36-1.03,0.54-1.54c0,0,0,0,0,0c0.19-0.33,0.38-0.66,0.57-0.99c0.6-0.52,1.19-1.03,2.07-0.64
		c0.79,0.35,1.16,0.98,1.27,1.81c0.04,0.34,0.09,0.69,0.19,1.01c0.13,0.41,0.28,0.82,0.49,1.19c0.83,1.39,1.97,1.97,3.39,0.83
		c0.27-0.21,0.54-0.43,0.81-0.64c1.4-0.28,2.57,0.01,3.34,1.32c0.09,0.15,0.23,0.26,0.33,0.4c0.67,0.89,1.56,1.3,2.67,1.34
		c1.55,0.05,3.12,0.13,4.61-0.39c1.33-0.46,2.69-0.56,4.08-0.57c0.33,0.27,0.63,0.62,1,0.78c1.49,0.65,2.9,1.42,4.26,2.32
		c0.61,0.4,1.43,0.56,2.17,0.67c1.06,0.15,1.39-0.3,1.44-1.76c-0.51-2.02-0.79-4.11-1.78-6c-0.26-0.5-0.27-1.13-0.39-1.71
		c0,0,0,0,0,0c0.14-0.31,0.3-0.62,0.42-0.94c0.38-1.09,1.1-1.48,2.21-1.15c0.25,0.54,0.54,1.07,0.75,1.62
		c1.05,2.79,3.66,3.05,6.01,3.65c0.33,0.08,0.92-0.39,1.21-0.75c0.36-0.44,0.18-0.98-0.2-1.39c-0.29-0.31-0.63-0.56-0.97-0.83
		c-0.73-0.59-1.46-1.17-2.19-1.75c0.29-0.61,0.66-0.88,1.42-0.76c1.62,0.27,1.72,0.13,2.09-1.39c0.16-0.66,0.41-1.29,0.63-1.94
		c0.17,0.16,0.34,0.32,0.51,0.49c0.35,1.08,0.81,2.07,1.97,2.54c0.62,0.25,1.28-0.09,1.33-0.74c0.04-0.65,0.03-1.3,0.04-2.1
		c0.6,0.06,1.01,0.16,1.42,0.13c1.87-0.16,2.5-1.36,1.61-3c-0.28-0.52-0.59-1.04-0.8-1.59c-0.18-0.48,0.24-1.03,0.77-1.13
		c0.64-0.12,1.22,0.02,1.55,0.62c0.25,0.44,0.41,0.92,0.59,1.34c0.92,0.15,1.77,0.23,2.58,0.45c0.82,0.22,1.61,0.57,2.41,0.86
		c3.74,2.33,7.37,4.84,11.36,6.75c1.98,1.55,2.24,1.62,4.22,1.05c-0.33-1.45-1.05-2.65-2.12-3.67c0,0,0,0,0,0
		c-0.29-0.6-0.47-1.29-0.9-1.78c-0.74-0.85-1.32-1.76-1.6-2.84c-0.34-1.32-1.17-2.23-2.29-2.9c-0.79-0.47-1.64-0.85-2.47-1.27
		c-0.06-1.1-0.31-2-1.64-2.25c-1.68-0.31-2.35-1.9-3.38-3.01c-0.19-0.2-0.08-0.87,0.11-1.19c0.71-1.15,1.95-1.47,3.13-0.74
		c1.82,1.14,3.57,2.4,5.35,3.6c0.92,0.62,1.87,1.2,2.81,1.81c0.57,0.37,1.24,0.65,1.68,1.14c0.76,0.84,1.67,1.15,2.75,1.19
		c1.94,0.09,3.47,0.8,4.34,2.69c0.4,0.89,1.21,1.45,2.11,1.81c1.35,0.55,2.71,1.08,4.08,1.61c0.48,0.19,1.04,0.25,1.44,0.54
		c2.06,1.45,4.46,2.14,6.7,3.18c2.18,1.01,4.33,2.11,6.5,3.15c0.38,0.18,0.78,0.37,1.19,0.42c0.44,0.06,0.91-0.12,1-0.61
		c0.05-0.28-0.09-0.72-0.31-0.9c-1.66-1.39-2.95-3.12-4.31-4.78c-0.87-1.06-1.86-2.03-2.8-3.04c-1.12-1.19-2.24-2.38-3.38-3.54
		c-0.54-0.55-1.13-1.05-1.74-1.53c-0.74-0.59-1.51-1.14-2.26-1.7c0.01-1.07-0.12-2.18,0.86-3.2c0.75,0.6,1.46,1.16,2.16,1.71
		c0.2,0.16,0.38,0.39,0.6,0.47c2.53,0.93,4.11,2.96,5.78,4.9c0.89,1.03,1.89,1.96,2.84,2.94c1.4,1.74,2.98,3.26,4.74,4.67
		c2.27,1.81,4.28,3.96,6.3,6.06c1.36,1.41,0.66,3.48-1.29,3.96c-0.64,0.16-1.39,0.18-2.03,0.03c-3.23-0.8-6.58-1.21-9.59-2.8
		c-0.52-0.28-1.13-0.4-1.69-0.59c-0.73-0.25-1.52-0.39-2.17-0.78c-2.59-1.52-5.52-2.26-8.16-3.69c-1.42-0.77-3.02-1.2-4.53-1.78
		c-0.37-1.39-1.28-1.88-2.65-1.62c-0.16,0.03-0.33,0.06-0.49,0.08c0,0-0.03,0.01-0.03,0.01c-1.75-1.95-2.35-2.19-4.1-1.64
		c0.11,0.84,0.69,1.33,1.33,1.76c0.35,0.34,0.69,0.68,1.04,1.02C378.83,535.49,379.41,536.78,380.63,537.7z M330.49,549.56
		c-0.01-1.16-0.84-1.84-1.53-2.61c-0.9-1.29-1.33-1.48-2.44-0.97c-0.46,0.21-0.91,0.48-1.31,0.79c-1.17,0.93-2.45,1.09-3.87,0.78
		c-0.83-0.19-1.68-0.31-2.53-0.39c-0.41-0.04-0.84,0.08-1.24,0.18c-0.37,0.1-0.48,0.85-0.17,1.09c0.2,0.15,0.41,0.34,0.65,0.39
		c3.08,0.68,6.13,1.61,9.35,1.23c0.17,0.01,0.34,0.02,0.51,0.02C328.87,550.45,329.72,550.18,330.49,549.56z M360.52,542.34
		c-0.34-1.84-1.08-2.98-2.14-3.87c-1.26-1.07-2.37-2.2-3.02-3.76c-0.31-0.74-0.98-0.9-1.71-0.83c-0.75,0.08-1.26,0.49-1.5,1.21
		c-0.48,1.47-0.01,2.73,1.04,3.74C355.13,540.74,357.53,541.74,360.52,542.34z M306.54,548.82c0.28-0.02,0.37-0.02,0.45-0.03
		c0.9-0.12,1.67-0.47,1.99-1.4c0.33-0.98,0.12-1.87-0.64-2.59c-0.74-0.71-1.55-0.6-2.36-0.14c-0.22,0.13-0.46,0.24-0.67,0.38
		c-1.22,0.79-2.42,0.69-3.64-0.02c-0.51-0.3-1.05-0.59-1.61-0.74c-0.25-0.07-0.72,0.13-0.87,0.36c-0.15,0.22-0.16,0.69-0.02,0.95
		c0.5,0.96,1.35,1.52,2.38,1.82c1.31,0.39,2.62,0.8,3.94,1.18C305.88,548.71,306.31,548.77,306.54,548.82z"/>
	<path class="st0" d="M300.56,577.46c-0.03-0.25-0.03-0.51-0.1-0.75c-0.37-1.27-0.98-1.57-1.96-0.89c-0.76,0.52-1.44,1.15-2.15,1.73
		c-0.34,0.06-0.67,0.18-1.01,0.18c-1.19-0.01-1.57-0.32-1.8-1.39c-0.02-0.08-0.03-0.17-0.02-0.26c0.09-1.2-0.51-1.94-1.6-2.35
		c-0.14-0.05-0.23-0.24-0.39-0.41c-0.15-0.47,0.18-0.74,0.58-0.94c1.11-0.55,2.14-0.3,3.19,0.25c1.27,0.67,2.32,0.35,3.07-0.89
		c0.19-0.32,0.38-0.63,0.57-0.95c1.63-0.08,3.22-0.01,4.6,1.03c0.01,0.51,0.03,1.02,0.04,1.53c-0.01,0.86-0.01,1.72-0.02,2.58
		c0,0,0,0,0,0c-0.21,0.54-0.39,1.11-0.64,1.63c-0.58,1.2-1.14,1.22-2.23,0.1C300.64,577.61,300.6,577.53,300.56,577.46z"/>
	<path class="st0" d="M329.97,571.31c-1-0.46-2-0.9-3-1.38c-0.46-0.22-0.87-0.54-1.34-0.73c-0.79-0.32-1.55-0.08-1.97,0.67
		c-0.53,0.96-0.98,1.97-1.46,2.96c0.04-1.12,0.07-2.23,0.13-3.35c0.05-0.92,0.49-1.42,1.36-1.61c0.79-0.17,1.56-0.12,2.25,0.29
		C327.41,569.04,328.97,569.81,329.97,571.31z"/>
	<path class="st0" d="M322.22,572.88c-0.41,0.02-0.92,0.21-1.22,0.03c-1.8-1.08-3.84-1.1-5.8-1.45c-0.25-0.04-0.49-0.1-0.74-0.15
		c1.99-0.86,3.87-0.34,5.71,0.5C320.87,572.13,321.53,572.52,322.22,572.88z"/>
	<path class="st0" d="M303.55,571.83c-1.38-1.04-2.97-1.11-4.6-1.03c0.2-0.14,0.39-0.32,0.61-0.42
		C301.57,569.5,302.35,569.79,303.55,571.83z"/>
	<path class="st0" d="M312.4,574.41c-0.05,1.41-0.69,2.56-1.56,3.61C310.8,576.58,311.3,575.36,312.4,574.41z"/>
	<path class="st0" d="M347.03,548.02c-1.02,0-2.04,0.01-3.05,0.01c0,0-0.05-0.05-0.05-0.05c1.04-1.16,2.09-0.53,3.13-0.02
		L347.03,548.02z"/>
	<path class="st0" d="M314.46,571.31c-0.69,1.03-1.37,2.06-2.06,3.09C312.6,573.04,313.05,571.85,314.46,571.31z"/>
	<path class="st0" d="M303.57,575.94c0.01-0.86,0.01-1.72,0.02-2.58C303.98,574.22,303.97,575.08,303.57,575.94z"/>
	<path class="st0" d="M348.06,548.05c0.04,0.12,0.08,0.25,0.11,0.38c-0.38-0.13-0.76-0.27-1.15-0.4c0,0,0.03-0.05,0.03-0.05
		C347.39,547.99,347.73,548.02,348.06,548.05z"/>
	<path class="st0" d="M309.3,222.94c0.24-0.22,0.49-0.43,0.86-0.77c0.22,0.4,0.48,0.66,0.51,0.95c0.11,1.02,0.2,2.05,0.2,3.08
		c0,3.69-0.03,7.38-0.09,11.07c-0.01,0.85-0.17,1.7-0.33,2.54c-0.05,0.27-0.36,0.48-0.71,0.91c-0.21-0.53-0.43-0.82-0.43-1.12
		c-0.01-1.97-0.18-3.97,0.11-5.9c0.47-3.18,0.57-6.31,0.02-9.47c-0.07-0.42-0.08-0.85-0.12-1.28
		C309.31,222.95,309.3,222.94,309.3,222.94z"/>
	<path class="st0" d="M263.2,416.02c-0.57,0.18-1.13,0.38-1.71,0.54c-0.14,0.04-0.32-0.08-0.66-0.17c-0.05-0.6-0.11-1.26-0.16-1.92
		c0.6-0.3,1.2-0.61,1.81-0.91c0.53-0.26,1.18-0.39,1.59-0.77c2.26-2.09,4.47-4.25,6.69-6.39c0.25-0.24,0.44-0.53,0.68-0.77
		c1.15-1.1,2.71-0.86,3.38,0.58c0.21,0.44,0.18,1,0.25,1.51c0,0-0.05-0.06-0.05-0.06c-1.1,0.35-1.89,1.11-2.65,1.93
		c-0.75,0.81-1.61,1.51-2.42,2.26c-0.72,0.34-1.25,0.88-1.55,1.61c-0.54,1.3-1.47,2.26-2.6,3.05
		C264.93,416.35,264.06,416.18,263.2,416.02z"/>
	<path class="st0" d="M265.8,416.51c1.12-0.8,2.06-1.76,2.6-3.05c0.3-0.73,0.83-1.27,1.55-1.61c-0.54,0.98-1.09,1.95-0.5,3.11
		c-0.3,1.57-0.95,3.01-2.14,4.04c-1.06,0.92-2.09,2.04-3.53,2.26c-0.57-0.47-0.42-0.92-0.21-1.28
		C264.28,418.81,265.05,417.67,265.8,416.51z"/>
	<path class="st0" d="M269.44,414.97c-0.58-1.16-0.03-2.14,0.5-3.11c0.81-0.75,1.67-1.46,2.42-2.26c0.77-0.82,1.55-1.58,2.65-1.93
		c0.55,0.36,1.1,0.72,1.65,1.08c-1.73,1.54-3.45,3.08-5.18,4.61c-0.51,0.37-1.01,0.73-1.52,1.1
		C269.79,414.62,269.62,414.79,269.44,414.97z"/>
	<path class="st0" d="M269.97,414.45c0.51-0.37,1.01-0.73,1.52-1.1C270.98,413.72,270.48,414.09,269.97,414.45z"/>
	<path class="st0" d="M367.18,423.7c-1.18,0.69-2.38,0.6-3.59,0.09C364.79,423.76,365.99,423.73,367.18,423.7z"/>
	<path class="st0" d="M319.04,418.62c-0.84-1.22-1.69-2.43-2.53-3.65C318.02,415.73,318.68,417.07,319.04,418.62z"/>
	<path class="st0" d="M361.5,428.36c0.83-0.5,1.75-0.91,2.03-1.98C363.81,428.21,363.49,428.53,361.5,428.36z"/>
	<path class="st0" d="M319.07,419.17c-0.01-0.16-0.02-0.33-0.01-0.49c0.9-0.88,1.11-1.97,0.99-3.17
		C320.83,417.78,320.77,417.98,319.07,419.17z"/>
	<path class="st0" d="M314.99,416.53c-0.22,0.66-0.44,1.32-0.65,1.97C314.56,417.85,314.77,417.19,314.99,416.53z"/>
	<path class="st0" d="M315.45,415.46c-0.15,0.36-0.3,0.71-0.45,1.07C315.14,416.17,315.3,415.82,315.45,415.46z"/>
	<path class="st0" d="M339.27,414.45c0.16,0.37,0.31,0.74,0.47,1.12C339.59,415.19,339.43,414.82,339.27,414.45z"/>
	<path class="st0" d="M309.8,189.27c0.58,1.51,0.49,3.1,0.46,4.67C309.68,192.43,309.76,190.85,309.8,189.27z"/>
	<path class="st0" d="M309.8,187.21c0,0.34,0,0.69,0.01,1.03C309.8,187.9,309.8,187.55,309.8,187.21z"/>
	<path class="st0" d="M323.15,422.14c-0.67,0.2-1.33,0.41-2,0.61c0.38-0.99,1.02-1.71,2.05-2.05
		C323.18,421.18,323.17,421.66,323.15,422.14z"/>
	<path class="st0" d="M316.49,315.67c0.49-0.7,1.14-0.65,1.78-0.46c0.16,0.05,0.35,0.38,0.33,0.56c-0.02,0.2-0.24,0.48-0.43,0.53
		C317.49,316.52,316.9,316.36,316.49,315.67z"/>
	<path class="st0" d="M314.48,319.79c-0.06-0.36-0.37-0.74,0.08-1.08c0.4,0.4-0.03,0.72-0.08,1.06
		C314.48,319.78,314.48,319.79,314.48,319.79z"/>
	<path class="st0" d="M233.68,514.85c-0.28,0.8-0.57,1.6-0.84,2.41c-0.36,1.05-0.73,2.1-1.63,2.84c-0.39-0.99-1.15-1.49-2.16-1.64
		c0.3-0.8,0.61-1.6,0.88-2.41c0.16-0.48,0.34-0.98,0.38-1.48c0.07-0.82-0.76-1.48-1.55-1.25c-0.48,0.14-0.97,0.37-1.38,0.65
		c-0.84,0.59-1.64,1.24-2.46,1.86c-0.13,0.11-0.29,0.19-0.4,0.32c-0.93,1.15-2.06,1.89-3.54,2.3c-1.71,0.47-3.32,1.28-4.74,2.42
		c-0.72,0.58-1.54,1.07-2.39,1.44c-1.15,0.51-1.99,1.28-2.53,2.39c-0.29,0.28-0.57,0.56-0.86,0.84c-0.35,0.23-0.71,0.47-1.06,0.7
		c0,0,0-0.04,0-0.04c-1.24,0.87-2.49,1.73-3.73,2.6c-0.13,0.12-0.25,0.25-0.38,0.37c-0.39,0.23-0.78,0.45-1.17,0.68
		c-0.48,0.64-0.97,1.29-1.45,1.93c-0.28,0.31-0.67,0.58-0.82,0.95c-0.14,0.35-0.17,0.91,0.03,1.16c0.19,0.24,0.76,0.34,1.12,0.27
		c0.48-0.09,0.93-0.4,1.38-0.61c0.3-0.2,0.6-0.4,0.9-0.61c0.33-0.33,0.66-0.66,0.99-0.99c0.37-0.36,0.73-0.71,1.1-1.07
		c1.34-0.48,2.42-1.3,3.13-2.55c0,0-0.05,0.03-0.05,0.03c0.7-0.36,1.39-0.71,2.09-1.07l-0.01,0.01c0.87-0.28,1.55-0.83,2.07-1.57
		l0,0c1.15-0.41,2.14-1.02,2.89-2.02c0.99-1.32,2.26-1.76,3.83-1.08c-0.35,1.03-0.7,2.06-1.05,3.1l0.01-0.01
		c-0.19,0.34-0.39,0.69-0.58,1.03c-0.17,0.53-0.35,1.05-0.52,1.58c-0.48,0.43-1.14,0.74-1.05,1.57c0.9,0.28,1.57-0.16,2.18-0.58
		c1.61-1.12,3.18-2.31,4.12-4.11c0.16-0.03,0.33-0.06,0.49-0.08c0.42,1.11,0.83,2.23,1.27,3.33c0.36,0.91,0.17,1.66-0.57,2.28
		c-0.26,0.22-0.51,0.45-0.78,0.66c-1.53,1.19-2.2,2.76-2.04,4.69c0.04,0.51,0.08,1.02,0.11,1.52l-0.14,0.12
		c-1.35-1.57-0.75-3.41-0.62-5.05c-0.49-0.56-0.93-0.41-1.24-0.11c-0.6,0.6-1.13,1.28-1.69,1.93c-1.15,0.32-2.25,0.74-3.08,1.68
		c-1.27,1.43-2.87,2.36-4.65,3.01c0,0,0,0,0,0c-0.66-0.78-0.84-1.67-0.64-2.66c0.18-0.93,0.38-1.86,0.51-2.79
		c0.05-0.38-0.09-0.78-0.18-1.48c-1.69,0.83-3.21,1.4-4.35,2.61c-0.45,0.48-0.67,1.17-0.99,1.77c-0.7,0.5-1.46,0.93-2.09,1.51
		c-1.05,0.96-2.21,1.56-3.64,1.76c-0.75,0.1-1.45,0.51-2.17,0.79c-0.99,0.38-1.88,0.17-2.62-0.54c-0.78-0.76-0.73-1.71-0.37-2.64
		c0.22-0.55,0.6-1.04,0.88-1.57c0.6-1.13,1.27-2.23,1.48-3.66c-1.89-0.83-3.69-0.69-5.45,0.14c-1.72,0.81-3.3,1.84-4.7,3.15
		c-1.14,0.12-2.12,0.63-3.09,1.2c-1.1,0.65-2.26,0.74-3.47,0.37c-1.12-0.34-1.72-1.28-1.34-2.38c0.28-0.8,0.78-1.51,1.18-2.26
		c0.87,0.52,1.73,1.41,2.62,1.45c1.02,0.04,2.07-0.68,3.1-1.08c0.08-0.03,0.16-0.06,0.24-0.1c1.38-0.86,2.78-1.7,4.13-2.61
		c0.44-0.29,0.69-0.79,0.47-1.35c-0.22-0.55-0.75-0.77-1.26-0.7c-0.66,0.09-1.33,0.3-1.95,0.56c-0.63,0.26-1.2,0.67-1.82,0.96
		c-0.53,0.24-1.02-0.12-1.02-0.74c0-0.33,0.15-0.66,0.23-1c1.19-0.91,2.17-2.14,3.89-2.2c0.4-0.01,0.94-0.48,1.15-0.88
		c0.7-1.39,1.75-2.48,2.74-3.64c0.15-0.03,0.29-0.07,0.43-0.13c1.09-0.12,1.98-0.59,2.66-1.45c0.46-0.38,0.95-0.74,1.39-1.14
		c2.31-2.11,5.05-3.44,7.9-4.65c2.03-0.87,3.95-2.01,5.91-3.05c0.45-0.24,0.88-0.53,1.32-0.78c0.68-0.37,1.29-0.26,1.9,0.21
		c2.12,1.62,2.13,2.13,0.08,3.8c-0.53,0.43-0.98,0.95-1.46,1.43l-0.03,0.03c-0.6,0.54-0.93,1.2-1.05,2
		c-0.23,1.46,0.59,2.28,1.9,1.72c1.48-0.63,2.94-1.39,4.3-2.25c2.02-1.28,3.93-2.72,5.92-4.05c0.71-0.47,1.45-0.99,2.25-1.21
		c1.77-0.49,3.25-1.5,4.78-2.43c1.4-0.39,2.49,0.34,3.6,1.01c0,0,0-0.01,0-0.01C234.91,511.88,233.94,513.28,233.68,514.85z"/>
	<path class="st0" d="M273.04,572.82c1.7-0.03,3.41-0.12,5.11-0.05c1.01,0.04,2.01,0.37,3.02,0.52c1.17,0.17,2.36,0.29,3.54,0.43
		c0.76,0.09,1.53,0.13,2.27,0.28c0.28,0.06,0.51,0.36,0.93,0.68c-1.46,1.15-3.08,1.84-3.98,3.35c-0.19-0.64-0.29-1.32-0.58-1.91
		c-0.32-0.68-1.27-0.77-1.68-0.15c-0.46,0.7-0.83,1.46-1.13,2.24c-0.3,0.78-0.46,1.62-0.69,2.43c-0.67-1.32-0.75-2.54,0.17-3.86
		c0.67-0.95,0.13-1.89-1.06-2.01c-1.28-0.13-2.57-0.12-3.86-0.05c-0.34,0.02-0.79,0.39-0.96,0.72c-0.26,0.53,0.1,0.99,0.55,1.3
		c0.49,0.34,1.04,0.6,1.51,0.97c0.49,0.39,0.43,1.17-0.05,1.6c-0.5,0.44-1.08,0.6-1.67,0.3c-1.14-0.58-2.26-1.21-3.36-1.85
		c-0.29-0.17-0.52-0.45-0.74-0.71c-0.62-0.77-0.65-1.62,0.03-2.34c0.65-0.68,1.41-1.25,2.13-1.87
		C272.71,572.82,272.88,572.82,273.04,572.82z"/>
	<path class="st0" d="M272.55,572.82c-0.71,0.62-1.48,1.19-2.13,1.87c-0.68,0.72-0.65,1.57-0.03,2.34c0.21,0.26,0.45,0.54,0.74,0.71
		c1.11,0.64,2.22,1.27,3.36,1.85c0.59,0.3,1.17,0.14,1.67-0.3c0.48-0.42,0.54-1.21,0.05-1.6c-0.47-0.37-1.02-0.63-1.51-0.97
		c-0.45-0.31-0.81-0.77-0.55-1.3c0.16-0.33,0.62-0.7,0.96-0.72c1.28-0.07,2.58-0.07,3.86,0.05c1.19,0.12,1.73,1.06,1.06,2.01
		c-0.92,1.32-0.84,2.54-0.17,3.86c-0.16,1.43-0.28,2.87-1.07,4.13c0.08-0.86,0.19-1.72,0.22-2.58c0.05-1.35-0.59-1.96-1.87-1.83
		c-0.09,0.01-0.17,0.02-0.25,0.05c-2.58,0.96-4.49-0.4-6.37-1.83c-0.94-0.72-1.38-1.74-1.48-2.91c-0.14-1.67,0.57-2.62,2.23-2.9
		C271.69,572.68,272.13,572.79,272.55,572.82z"/>
	<path class="st0" d="M180.47,532.49c-0.4,0.75-0.9,1.47-1.18,2.26c-0.38,1.09,0.22,2.03,1.34,2.38c1.21,0.37,2.37,0.28,3.47-0.37
		c0.96-0.57,1.95-1.08,3.09-1.2c-0.7,0.74-1.37,1.5-2.09,2.22c-0.66,0.66-1.37,1.29-2.05,1.93c-0.51,0-1.03,0.01-1.54,0.01
		c-1.02,0.01-2.05,0.03-3.07,0.03c-1.02,0-1.67-0.62-1.54-1.61c0.22-1.69,0.52-3.38,0.87-5.05c0.1-0.47,0.45-0.93,0.79-1.3
		c1.39-1.54,2.96-2.85,5.01-3.46C182.52,529.71,181.49,531.1,180.47,532.49z"/>
	<path class="st0" d="M277.2,552.14c-0.17-0.7-0.33-1.39-0.5-2.09c0.65,0.78,1.4,1.5,1.92,2.36c1.54,2.54,4.02,2.98,6.65,3.07
		c0.62,0.02,1.15-0.32,1.35-0.99c0.18-0.63-0.16-1.33-0.9-1.65c-0.63-0.27-1.3-0.43-1.95-0.63c-2.36-0.71-3.84-2.17-3.99-4.74
		c0.1,0.14,0.21,0.27,0.3,0.42c1.64,2.81,4.04,4.07,7.29,3.65c1.1-0.14,2.21-0.3,3.3,0.11c-1.97,1.1-1.97,1.1-2.2,2.98
		c0.59,0.61,1.26,0.27,1.89,0.09c1.14-0.32,2.26-0.69,3.39-1.04c-0.39,0.81-1.04,1.33-1.89,1.61c-0.97,0.32-1.95,0.61-2.92,0.95
		c-2.44,0.85-4.79,0.75-7.23-0.18C279.67,555.29,278.26,553.97,277.2,552.14z"/>
	<path class="st0" d="M180.47,532.49c1.03-1.39,2.05-2.78,3.08-4.18c0.18-0.17,0.35-0.34,0.53-0.51c0.37,0.03,0.75,0.05,1.12,0.08
		c-0.08,0.33-0.23,0.66-0.23,1c0,0.63,0.5,0.98,1.02,0.74c0.62-0.29,1.19-0.7,1.82-0.96c0.62-0.26,1.29-0.47,1.95-0.56
		c0.51-0.07,1.04,0.15,1.26,0.7c0.23,0.56-0.03,1.06-0.47,1.35c-1.35,0.9-2.75,1.74-4.13,2.61c-0.07,0.04-0.16,0.07-0.24,0.1
		c-1.04,0.39-2.09,1.12-3.1,1.08C182.2,533.9,181.34,533.01,180.47,532.49z"/>
	<path class="st0" d="M185.2,527.88c-0.37-0.03-0.75-0.05-1.12-0.08c0.21-0.37,0.35-0.83,0.66-1.1c1.92-1.72,3.86-3.41,5.81-5.09
		c0.7-0.61,1.53-0.74,2.42-0.45c-0.98,1.16-2.04,2.26-2.74,3.64c-0.2,0.4-0.75,0.86-1.15,0.88
		C187.37,525.74,186.39,526.97,185.2,527.88z"/>
	<path class="st0" d="M272.5,547.92c-0.18,0.67-0.43,1.32-1.12,1.61c-0.77,0.32-1.5,0.04-2.2-0.29c-1.11-0.51-1.98-1.3-2.59-2.36
		c-0.6-1.05-1.57-1.47-2.67-1.77c-0.95-0.25-1.66,0.02-2.24,0.77c-0.87,0.18-1.74,0.35-2.61,0.53c0.82-0.58,1.6-1.24,2.48-1.71
		c1.92-1.04,3.79-0.66,5.22,0.95c0.39,0.44,0.74,0.91,1.11,1.37c1.12,1.48,2.54,1.64,4.14,0.9
		C272.18,547.93,272.34,547.93,272.5,547.92z"/>
	<path class="st0" d="M205.85,536.64c0.32-0.6,0.54-1.29,0.99-1.77c1.14-1.21,2.66-1.78,4.35-2.61c0.09,0.71,0.23,1.11,0.18,1.48
		c-0.12,0.94-0.32,1.87-0.51,2.79c-0.2,0.99-0.02,1.88,0.64,2.66c-1.75-0.74-1.87-0.89-1.78-2.35c0.03-0.43,0.15-0.85,0.22-1.27
		c-0.14-1.13-0.32-1.31-1.14-0.98c-0.31,0.12-0.59,0.34-0.89,0.52C207.23,535.62,206.54,536.13,205.85,536.64z"/>
	<path class="st0" d="M293.75,553.69c1.07-0.85,2.03-1.74,2.52-3.12c0.4-1.12,1.04-1.38,2.24-1.07c1.23,0.32,2.43,0.76,3.63,1.2
		c1.19,0.44,2.36,0.94,3.54,1.41c-1.03,0.29-2.07,0.4-3.11,0.03c-0.17-0.18-0.35-0.35-0.52-0.53c-0.69-0.16-1.38-0.32-2.07-0.48
		c-1.03-0.7-2.06-1.24-3.11-0.02C296.73,553.06,295.52,553.7,293.75,553.69z"/>
	<path class="st0" d="M348.06,548.05c-0.33-0.03-0.67-0.05-1-0.08c-1.05-0.51-2.1-1.14-3.13,0.02c-0.16,0.35-0.31,0.7-0.47,1.04
		c-0.95-1.2-0.26-2.4,0.03-3.58c0.06-0.24,0.48-0.51,0.77-0.55c0.57-0.08,1.16-0.01,1.75,0c0,0-0.01-0.01-0.01-0.01
		C346.29,546.2,347.37,547,348.06,548.05z"/>
	<path class="st0" d="M296.87,551.11c1.04-1.22,2.08-0.68,3.11,0.02c0.39,0.63,0.57,1.26-0.16,1.75c-0.69,0.46-1.48,0.36-2.02-0.29
		C297.42,552.14,297.17,551.6,296.87,551.11z"/>
	<path class="st0" d="M211.5,539.19c1.78-0.65,3.38-1.58,4.65-3.01c0.83-0.94,1.93-1.35,3.08-1.68c-0.17,0.34-0.34,0.68-0.51,1.03
		l-0.01,0.01c-1.33,0.49-2.24,1.54-3.25,2.46C214.34,539.03,213.1,539.73,211.5,539.19z"/>
	<path class="st0" d="M229.16,538.27c-1.41,1.1-3.06,0.98-4.69,0.85c-0.85-0.07-1.39-0.62-1.7-1.39c0,0,0.14-0.12,0.14-0.12
		c0.94,0.67,1.99,0.83,3.13,0.7c1-0.11,2.02-0.13,3.03-0.19L229.16,538.27z"/>
	<path class="st0" d="M234.77,510.22c-1.11-0.67-2.2-1.4-3.6-1.01c0.34-0.36,0.68-0.71,1.03-1.07
		C234.19,508.16,234.19,508.16,234.77,510.22z"/>
	<path class="st0" d="M207.92,535.11c0.29-0.18,0.57-0.39,0.89-0.52c0.82-0.32,1-0.15,1.14,0.98
		C209.2,535.71,208.53,535.55,207.92,535.11z"/>
	<path class="st0" d="M196.06,519.58c-0.68,0.87-1.57,1.34-2.66,1.45C193.94,519.91,194.76,519.3,196.06,519.58z"/>
	<path class="st0" d="M288.62,596.67c-0.22-1.37-0.22-1.37,1.01-1.55c-0.17,0.52-0.33,1.04-0.5,1.56c0,0,0.01,0.01,0.01,0.01
		C288.97,596.68,288.79,596.67,288.62,596.67z"/>
	<path class="st0" d="M288.62,596.67c0.17,0,0.35,0.01,0.52,0.01c0.17,0.78-0.04,1.45-0.53,2.05
		C288.61,598.05,288.61,597.36,288.62,596.67z"/>
	<polygon class="st0" points="193.17,538.29 193.18,538.14 193.3,538.23 	"/>
	<path class="st0" d="M289.13,596.68c0.17-0.52,0.33-1.04,0.5-1.56c0.17-0.01,0.34-0.01,0.51-0.02
		C289.8,595.62,289.46,596.15,289.13,596.68z"/>
	<path class="st0" d="M283.92,572.82c-0.34,0-0.67-0.01-1.01-0.01C283.25,572.44,283.59,572.45,283.92,572.82z"/>
	<polygon class="st0" points="218.72,535.53 218.78,535.65 218.71,535.54 	"/>
	<path class="st0" d="M230.12,507.62c0.35,0,0.69,0,1.04,0C230.82,507.62,230.47,507.62,230.12,507.62z"/>
	<path class="st0" d="M302.04,551.6c0.17,0.18,0.35,0.35,0.52,0.53C302.39,551.96,302.22,551.78,302.04,551.6z"/>
	<path class="st0" d="M257.08,410.42c1.32-1.23,2.61-2.48,3.3-4.22c0.45-1.13,1.41-1.7,2.53-1.99c0.41-0.11,0.84-0.19,1.27-0.21
		c1.18-0.04,2.11-0.41,2.87-1.42c0.54-0.73,0.96-0.53,1.69,0.65c-0.87,0.98-1.57,2.05-1.75,3.51c-0.13,1.1-1.29,1.77-2.26,2.33
		c-1.64,0.95-3.15,2.06-4.58,3.31c-1.05-0.35-2.09-0.71-3.14-1.06l0.02,0.02C257.05,411.04,257.07,410.73,257.08,410.42z"/>
	<path class="st0" d="M257.01,411.33c0.06,0.51,0.24,1.05,0.14,1.52c-0.11,0.55-0.39,1.12-0.74,1.57c-0.38,0.48-0.77,0.46-2.11,0.3
		c0.41-1.6,0.82-2.11,2.74-3.38C257.04,411.35,257.01,411.33,257.01,411.33z"/>
	<path class="st0" d="M345.99,531.5c-0.21,0.65-0.46,1.28-0.63,1.94c-0.37,1.52-0.47,1.65-2.09,1.39c-0.76-0.13-1.14,0.15-1.42,0.76
		c-1.96-1.61-4.11-2.82-6.67-3.14c-0.36-0.17-0.71-0.34-1.07-0.5c-0.17-0.17-0.34-0.34-0.51-0.51c-0.34-0.17-0.69-0.34-1.03-0.51
		c-0.16-0.01-0.33-0.02-0.49-0.03c-0.08-0.14-0.19-0.28-0.24-0.43c-0.42-1.25-0.25-1.71,0.87-2.11c0.62-0.22,1.28-0.35,1.92-0.52
		c0,0-0.01,0-0.01,0c0.73,1.14,1.83,1.52,3.13,1.51c0.56,0.2,1.16,0.33,1.68,0.61c1.17,0.64,2.36,0.92,3.7,0.71
		C344.18,530.5,345.15,530.83,345.99,531.5z"/>
	<path class="st0" d="M359.98,529.36c-0.8-0.29-1.59-0.65-2.41-0.86c-0.81-0.22-1.66-0.29-2.58-0.45c-0.18-0.42-0.34-0.9-0.59-1.34
		c-0.34-0.6-0.91-0.73-1.55-0.62c-0.53,0.1-0.95,0.65-0.77,1.13c0.21,0.55,0.52,1.07,0.8,1.59c0.89,1.64,0.26,2.84-1.61,3
		c-0.4,0.03-0.82-0.07-1.42-0.13c-0.01,0.8,0,1.45-0.04,2.1c-0.04,0.65-0.7,0.99-1.33,0.74c-1.16-0.46-1.62-1.45-1.97-2.54
		c0.92,0.46,1.78,0.68,2.37-0.51c0.48-0.98,1.28-1.31,2.35-1.08c0.22,0.05,0.48-0.07,0.68-0.11c0.49-0.57,0.19-1.02-0.09-1.45
		c-0.44-0.66-0.74-1.34-0.63-2.17c0.16-1.16,1.04-1.85,2.17-1.63c0.41,0.08,0.85,0.21,1.19,0.45
		C356.38,526.76,358.17,528.07,359.98,529.36z"/>
	<path class="st0" d="M366.19,524.7c0.83,0.42,1.68,0.8,2.47,1.27c1.12,0.67,1.95,1.59,2.29,2.9c0.28,1.08,0.85,1.99,1.6,2.84
		c0.42,0.48,0.61,1.18,0.9,1.78c-1.38-0.75-2.49-1.73-3.3-3.13c-0.68-1.18-1.66-2.17-2.46-3.29
		C367.14,526.31,366.69,525.49,366.19,524.7z"/>
	<path class="st0" d="M332.07,530.89c-0.36,0.01-0.71,0.02-1.07,0.02c-0.1-0.13-0.23-0.25-0.3-0.4c-0.63-1.4-0.33-2.22,1.01-2.75
		c0.98-0.39,1.95-0.36,2.91,0.06c-0.64,0.17-1.3,0.29-1.92,0.52c-1.12,0.4-1.3,0.86-0.87,2.11
		C331.88,530.61,331.99,530.75,332.07,530.89z"/>
	<path class="st0" d="M373.44,533.49c1.07,1.02,1.79,2.23,2.12,3.67c-1.99,0.57-2.24,0.5-4.22-1.05c0.81,0.11,1.69,0.89,2.42,0.24
		c0.8-0.71-0.06-1.57-0.18-2.37C373.55,533.82,373.49,533.66,373.44,533.49z"/>
	<path class="st0" d="M337.74,529.34c-1.29,0.01-2.39-0.37-3.13-1.51C335.78,528.08,336.88,528.47,337.74,529.34z"/>
	<path class="st0" d="M387.9,511.27c0.51,0.2,1.02,0.39,1.53,0.59c1.75,1.35,3.55,2.59,5.62,3.45c1.16,0.48,2.26,1.17,3.32,1.87
		c2.21,1.45,4.45,2.83,7.08,3.41c0.39,0.82,1.04,1.31,1.87,1.65c1.45,0.6,2.56,1.68,3.66,2.76c0.19,0.19,0.2,0.55,0.33,0.93
		c-1.11-0.25-2.05-0.36-2.92-0.67c-0.96-0.35-1.81-0.97-2.76-1.34c-0.87-0.34-1.8-0.49-2.71-0.72c-2.53-0.89-4.98-1.95-7.04-3.74
		c-0.49-0.43-1.18-0.64-1.78-0.95c-1.06-0.88-2.08-1.81-3.18-2.61c-1.46-1.06-2.99-2.02-4.48-3.04c-0.52-0.35-1.06-0.6-1.69-0.34
		c-0.85,0.36-1.48,0-2.1-0.55c-0.83-0.74-1.63-1.55-2.58-2.13c-1.41-0.86-2.08-2-1.94-3.63c0.84,0.13,1.69,0.25,2.53,0.38
		C382.85,508.51,385.41,509.82,387.9,511.27z"/>
	<path class="st0" d="M402.92,523.2c0.91,0.23,1.84,0.39,2.71,0.72c0.95,0.37,1.81,0.99,2.76,1.34c0.86,0.32,1.8,0.43,2.92,0.67
		c-0.13-0.39-0.14-0.75-0.33-0.93c-1.1-1.08-2.21-2.17-3.66-2.76c-0.83-0.34-1.48-0.83-1.87-1.65c2.39,0.95,4.74,1.99,6.91,3.38
		c0.79,0.51,1.71,0.8,2.51,1.3c1.01,0.63,1.97,1.34,2.92,2.06c0.17,0.13,0.31,0.51,0.24,0.67c-0.13,0.28-0.41,0.61-0.67,0.67
		c-0.48,0.1-1.01,0.06-1.51,0c-2.84-0.35-5.47-1.38-7.97-2.73C406.2,525.05,404.57,524.12,402.92,523.2z"/>
	<path class="st0" d="M380.22,532.92c0.16-0.03,0.33-0.05,0.49-0.08c1.37-0.26,2.28,0.24,2.65,1.62c-0.2,0.02-0.41,0.04-0.61,0.06
		c0,0-0.01,0.02-0.01,0.02c-0.34-0.34-0.69-0.67-1.03-1.01c-0.51-0.02-1.01-0.04-1.52-0.07C380.2,533.28,380.21,533.1,380.22,532.92
		z"/>
	<path class="st0" d="M368.26,539.18c1.53,0.41,3.15,0.63,4.16,2.07c-1.11-0.24-2.22-0.48-3.58-0.78
		C368.71,540.2,368.49,539.69,368.26,539.18z"/>
	<path class="st0" d="M365.15,537.64c1.04,0.52,2.08,1.03,3.11,1.55C366.98,539.17,365.72,539.1,365.15,537.64z"/>
	<path class="st0" d="M380.63,537.7c-1.22-0.91-1.8-2.2-2.16-3.62c0.39,0.16,0.77,0.32,1.15,0.48c0.01,0.17,0.03,0.35,0.04,0.52
		c0.16,0.34,0.32,0.69,0.49,1.04c0.18,0.34,0.36,0.67,0.54,1.01C380.67,537.31,380.65,537.5,380.63,537.7z"/>
	<path class="st0" d="M379.62,534.56c-0.38-0.16-0.77-0.32-1.15-0.48c-0.35-0.34-0.69-0.68-1.04-1.02c0.92-0.04,1.85-0.08,2.77-0.13
		c0,0,0.03-0.01,0.03-0.01c-0.01,0.18-0.02,0.36-0.03,0.54C380,533.83,379.81,534.19,379.62,534.56z"/>
	<path class="st0" d="M381.72,533.52c0.34,0.34,0.69,0.67,1.03,1.01C382.41,534.2,382.06,533.86,381.72,533.52z"/>
	<path class="st0" d="M380.15,536.12c-0.16-0.35-0.32-0.69-0.49-1.04C379.82,535.43,379.98,535.77,380.15,536.12z"/>
	<path class="st0" d="M229.08,538.13c-1.01,0.06-2.02,0.08-3.03,0.19c-1.14,0.13-2.18-0.03-3.13-0.7c-0.04-0.51-0.07-1.02-0.11-1.52
		c-0.16-1.93,0.51-3.49,2.04-4.69c0.27-0.21,0.52-0.44,0.78-0.66c0.74-0.62,0.93-1.37,0.57-2.28c-0.44-1.1-0.85-2.22-1.27-3.33
		c0.87-1.53,1.74-3.05,2.61-4.58c0.73-0.54,1.25-1.24,1.54-2.1l-0.03,0c1.02,0.15,1.78,0.65,2.17,1.64c0,0,0-0.05,0-0.05
		c-0.88,0.71-1.3,1.62-1.04,2.73c0.33,1.41,0.04,2.71-0.5,4.02c-0.71,1.7-0.75,3.52-0.83,5.33c-0.05,1.16,0.56,1.66,1.61,1.27
		c2.09-0.77,4.15-1.64,6.22-2.47c0.47-0.19,0.93-0.44,1.42-0.58c0.51-0.15,1.1,0.19,1.24,0.68c0.14,0.49,0.17,1.01,0.28,1.51
		c0.28,1.25,0.83,1.77,2.1,1.87c0.68,0.05,1.38,0.02,2.05-0.09c2.78-0.45,5.48-0.06,8.14,0.76c-0.52,1.38-1.04,2.77-1.56,4.15
		c-0.18-0.01-0.35-0.01-0.53-0.02c-0.48,0.49-0.95,1-1.45,1.47c-0.31,0.29-0.63,0.61-1,0.8c-0.27,0.14-0.72,0.2-0.95,0.06
		c-0.23-0.13-0.42-0.56-0.4-0.84c0.04-0.59,0.26-1.17,0.35-1.77c0.26-1.63-0.5-2.69-2.14-2.88c-0.58-0.07-1.2,0-1.78,0.13
		c-1.43,0.3-2.85,0.64-4.26,1.02c-1.06,0.28-2.05,0.28-2.89-0.52c-1.05-1-2.13-0.91-3.29-0.2
		C231.04,537.06,230.05,537.58,229.08,538.13z"/>
	<path class="st0" d="M272.02,547.94c-1.61,0.74-3.02,0.58-4.14-0.9c-0.27-1.41-0.93-2.52-2.14-3.37c-1.26-0.89-1.52-2.23-1.19-3.68
		c0.12-0.51,0.39-1.05,0.97-1.06c0.36-0.01,0.81,0.24,1.09,0.5c0.49,0.47,0.87,1.06,1.32,1.57c1.08,1.25,2.41,1.88,4.1,1.66
		c0.59-0.08,1.2-0.09,1.79-0.04c0.71,0.06,1.3,0.4,1.7,1.03c0.3,0.47,0.21,1.11-0.25,1.36c-0.37,0.2-0.78,0.36-1.18,0.51
		C272.97,545.95,272.28,546.75,272.02,547.94z"/>
	<path class="st0" d="M254.44,542.82c0.64,0.65,1.5,0.74,2.33,0.94c1.08,0.25,1.37,1.05,0.77,1.9c-1.33,1.88-3.24,2.68-5.35,2.08
		c-1.87-0.53-3.7-1.2-5.55-1.81c0.19-2.21,1.53-3.22,4.2-3.13C252.04,542.81,253.24,542.81,254.44,542.82z"/>
	<path class="st0" d="M360.52,542.34c-2.99-0.6-5.39-1.6-7.33-3.5c-1.04-1.02-1.51-2.27-1.04-3.74c0.23-0.72,0.74-1.14,1.5-1.21
		c0.73-0.07,1.41,0.09,1.71,0.83c0.64,1.55,1.76,2.69,3.02,3.76C359.44,539.36,360.18,540.5,360.52,542.34z"/>
	<path class="st0" d="M306.54,548.82c-0.23-0.05-0.66-0.11-1.06-0.23c-1.32-0.38-2.62-0.79-3.94-1.18
		c-1.03-0.31-1.88-0.87-2.38-1.82c-0.13-0.25-0.13-0.72,0.02-0.95c0.15-0.22,0.62-0.42,0.87-0.36c0.56,0.15,1.1,0.45,1.61,0.74
		c1.22,0.71,2.42,0.81,3.64,0.02c0.22-0.14,0.45-0.25,0.67-0.38c0.82-0.46,1.62-0.58,2.36,0.14c0.76,0.73,0.97,1.61,0.64,2.59
		c-0.31,0.93-1.08,1.28-1.99,1.4C306.91,548.8,306.82,548.8,306.54,548.82z"/>
	<path class="st0" d="M312.89,540.72c0.16-0.2,0.29-0.44,0.49-0.59c0.95-0.72,1.5-0.78,2.27-0.07c0.76,0.7,1.49,1.37,2.51,1.73
		c1.56,0.55,3.09,0.92,4.77,0.63c1.26-0.22,2.56-0.2,3.84-0.36c1.46-0.18,2.73,0.09,3.68,1.3c-0.84-0.18-1.68-0.37-2.53-0.55
		c-1.38,0.01-2.75,0.11-4.08,0.57c-1.49,0.52-3.06,0.44-4.61,0.39c-1.11-0.04-2-0.45-2.67-1.34c-0.1-0.14-0.25-0.25-0.33-0.4
		C315.46,540.73,314.29,540.44,312.89,540.72z"/>
	<path class="st0" d="M277.19,538.59c0.03-0.26,0.03-0.52,0.11-0.76c0.38-1.16,0.87-1.46,1.87-1.06c0.71,0.29,1.37,0.71,2.07,1.03
		c1.09,0.5,1.93,0.25,2.24-0.87c0.33-1.15,0.85-2.03,1.91-2.6c1.05-0.56,2.11-0.67,3.23-0.24c-1.8,1.55-3.69,3-5.06,5
		c-0.59,0.86-1.41,0.86-2.21,0.21c-0.07-0.05-0.13-0.11-0.18-0.18C280.04,537.45,278.66,537.71,277.19,538.59z"/>
	<path class="st0" d="M288.05,538.13c-0.49,0.6-0.98,1.19-1.47,1.79c-0.7,0.86-1.49,1.68-2.08,2.61c-0.69,1.09-1.54,1.75-2.83,2.03
		c-1.96,0.43-2.01,0.6-1.88,2.91c-0.52-0.42-1.13-0.78-1.55-1.28c-0.66-0.77-0.33-1.72,0.64-1.99c0.57-0.16,1.16-0.27,1.75-0.32
		c1.37-0.13,2.35-0.77,3.12-1.92c0.9-1.33,1.94-2.59,3.36-3.43C287.4,538.35,287.74,538.26,288.05,538.13z"/>
	<path class="st0" d="M297.84,539.19c1.06-0.45,1.86-0.11,2.7,0.64c1.04,0.93,1.22,0.84,2.54-0.11l0,0
		c0.16-0.01,0.33-0.02,0.49-0.02c-0.46,2.07-0.5,2.14-2.33,2.38c-1.09,0.14-2.19,0.19-3.29,0.28c-0.01-0.19-0.02-0.38-0.04-0.57
		C298.26,540.91,298.08,540.05,297.84,539.19z"/>
	<path class="st0" d="M347.13,542.84c1.33-0.8,2.66-0.9,3.99,0c0.37,0.51,0.73,1.02,1.1,1.53c0,0,0,0,0,0
		c-0.42,0.89-1.14,1.19-2.07,1.07c-0.33-0.02-0.66-0.05-0.98-0.07C348.12,544.81,347.19,544.18,347.13,542.84z"/>
	<path class="st0" d="M288.59,534.08c1.13-1.15,2.44-1.58,3.94-0.86c0.49,0.24,1.12,0.75,1.19,1.21c0.27,1.83,0.48,3.72-0.94,5.28
		c-0.04-0.86-0.05-1.72-0.13-2.57c-0.21-2.21-0.99-2.93-3.29-3.08C289.11,534.04,288.85,534.07,288.59,534.08z"/>
	<path class="st0" d="M250.34,539.23c0.52-1.38,1.04-2.77,1.56-4.15c0.34-0.53,0.68-1.06,1.02-1.59c0.31,1.15-0.15,2.15-0.58,3.18
		c-0.62,1.48-1.36,2.94-1.05,4.64c0.35,0.13,0.69,0.26,1.04,0.39c1.04-0.15,2.07-0.31,3.11-0.46c0.02,0.19,0.03,0.37,0.04,0.56
		c0,0,0,0,0,0c-1.55,0.16-3.1,0.33-4.64,0.49c-0.2-0.51-0.39-1.03-0.59-1.54C250.28,540.24,250.31,539.74,250.34,539.23z"/>
	<path class="st0" d="M255.48,541.79c-0.01-0.19-0.03-0.37-0.04-0.56c0.44-0.96,1.05-1.73,2.11-2.06c-0.27,1.19,0.96,1.48,1.37,2.21
		c-0.03,0.88-0.66,1.07-1.24,1.01C256.93,542.31,256.21,542,255.48,541.79z"/>
	<path class="st0" d="M327.92,542.81c0.84,0.18,1.69,0.37,2.53,0.55c1.23,0.7,2.45,1.39,3.68,2.09c0.89,0.31,1.75,0.41,2.41-0.47
		c0.09-0.05,0.17-0.1,0.26-0.15c-0.04,1.45-0.37,1.91-1.44,1.76c-0.75-0.11-1.56-0.26-2.17-0.67c-1.36-0.9-2.77-1.67-4.26-2.32
		C328.54,543.43,328.25,543.08,327.92,542.81z"/>
	<path class="st0" d="M380.2,532.93c-0.92,0.04-1.84,0.08-2.77,0.13c-0.65-0.44-1.22-0.92-1.33-1.76
		C377.85,530.74,378.45,530.99,380.2,532.93z"/>
	<path class="st0" d="M335.71,544.39c-0.36-1.5-0.65-3.02-1.09-4.5c-0.28-0.95-0.4-1.84-0.01-2.76c0.12,0.57,0.13,1.21,0.39,1.71
		c0.99,1.89,1.27,3.98,1.78,6c-0.08,0.05-0.17,0.1-0.25,0.15C336.26,544.78,335.98,544.58,335.71,544.39z"/>
	<path class="st0" d="M292.7,540.19c0.4,1.1,1.17,1.75,2.31,2.02c0.64,0.15,1.25,0.42,1.88,0.63c-0.89,0.47-1.79,0.26-2.69,0.05
		C292.51,542.48,292.33,542.15,292.7,540.19z"/>
	<path class="st0" d="M276.71,550.06c-1.05-1.06-2.11-2.13-3.16-3.19c0.84-0.3,1.55-0.09,1.98,0.66
		C275.99,548.33,276.32,549.21,276.71,550.06z"/>
	<path class="st0" d="M250.83,542.28c1.55-0.16,3.1-0.33,4.64-0.49c-0.35,0.34-0.69,0.68-1.04,1.03c-1.2,0-2.4-0.01-3.6-0.01
		C250.84,542.63,250.84,542.46,250.83,542.28z"/>
	<path class="st0" d="M334.69,534.12c0.99-0.08,1.91,0,2.55,0.91c-1.11-0.33-1.83,0.06-2.21,1.15c-0.11,0.32-0.28,0.63-0.42,0.94
		C334.64,536.12,334.67,535.12,334.69,534.12z"/>
	<path class="st0" d="M350.14,545.44c0.94,0.12,1.66-0.18,2.07-1.07c0.05,0.16,0.14,0.33,0.13,0.49c-0.07,1.19-0.57,1.53-1.63,1.07
		C350.49,545.84,350.33,545.61,350.14,545.44z"/>
	<path class="st0" d="M347.13,542.84c0.06,1.33,1,1.97,2.03,2.52c-1.05-0.16-2.1-0.32-3.15-0.48c0,0,0.01,0.01,0.01,0.01
		C346.38,544.21,346.75,543.53,347.13,542.84z"/>
	<path class="st0" d="M327.89,550.09c0.87-0.18,1.74-0.35,2.6-0.53C329.72,550.18,328.87,550.45,327.89,550.09z"/>
	<path class="st0" d="M352.22,544.38c-0.37-0.51-0.73-1.02-1.1-1.53C351.48,543.36,351.85,543.87,352.22,544.38z"/>
	<path class="st0" d="M303.57,539.7c0.18-0.51,0.36-1.03,0.54-1.54C303.93,538.68,303.75,539.19,303.57,539.7z"/>
	<path class="st0" d="M250.34,539.23c-0.03,0.5-0.06,1.01-0.09,1.51c-0.15-0.51-0.29-1.02-0.44-1.53
		C249.98,539.22,250.16,539.23,250.34,539.23z"/>
	<path class="st0" d="M290.66,551.65c0.51-0.18,1.02-0.37,1.53-0.55C291.68,551.28,291.17,551.46,290.66,551.65z"/>
	<path class="st0" d="M275.64,539.2c0.33,0,0.66-0.01,0.99-0.01c-0.3,0.19-0.6,0.38-0.9,0.58c0,0-0.18-0.11-0.18-0.11
		C275.59,539.5,275.62,539.35,275.64,539.2z"/>
	<path class="st0" d="M304.11,538.16c0.19-0.33,0.38-0.66,0.57-0.99C304.49,537.5,304.3,537.83,304.11,538.16z"/>
	<path class="st0" d="M296.86,542.84c0.34-0.18,0.68-0.37,1.01-0.55C297.54,542.48,297.2,542.66,296.86,542.84z"/>
	<path class="st0" d="M252.92,533.49c-0.34,0.53-0.68,1.06-1.02,1.59c-2.66-0.82-5.35-1.22-8.14-0.76
		c-0.67,0.11-1.37,0.14-2.05,0.09c-1.27-0.09-1.82-0.62-2.1-1.87c-0.11-0.5-0.14-1.02-0.28-1.51c-0.14-0.5-0.73-0.83-1.24-0.68
		c-0.49,0.14-0.94,0.39-1.42,0.58c-2.07,0.83-4.13,1.7-6.22,2.47c-1.06,0.39-1.66-0.11-1.61-1.27c0.08-1.8,0.12-3.63,0.83-5.33
		c0.54-1.31,0.83-2.6,0.5-4.02c-0.26-1.11,0.17-2.02,1.04-2.73c-0.24,1.19-0.27,2.35,0,3.57c0.19,0.89,0.08,1.88-0.04,2.8
		c-0.18,1.45-0.51,2.88-0.72,4.32c-0.14,0.97,0.6,1.46,1.47,0.99c0.98-0.53,1.96-1.08,2.86-1.74c1.17-0.86,2.43-1.3,3.86-1.03
		c1.43,0.28,2.48-0.21,3.41-1.29c0.61-0.71,1.38-1.28,2.08-1.92c0.16,0,0.32,0,0.48-0.02c0.99-0.03,1.88-0.29,2.59-1.03l0,0
		c0.84-0.17,1.67-0.37,2.52-0.49c0.3-0.04,0.86,0.06,0.9,0.21c0.1,0.36,0.07,0.84-0.1,1.17c-0.37,0.73-1.09,1.06-1.86,1.27
		c-1.09,0.3-2.13,0.7-2.96,1.5c-1.15,0.75-2.32,1.46-3.43,2.26c-0.68,0.49-1.48,1-1.27,2.04c0.12,0.61,0.94,0.91,2.26,0.62
		c1.36-0.29,2.71-0.34,4.08-0.29c0.51,0.02,1.03-0.04,1.53-0.11c0.93-0.13,1.57-0.64,1.87-1.54c0.22-0.65,0.41-1.31,0.61-1.96
		c0.33-0.54,0.66-1.07,0.99-1.61c0.13,0.38,0.01,0.92,1.05,1.26c-0.55-0.66-0.8-0.96-1.05-1.26c0.32-0.7,0.81-1.37,0.92-2.1
		c0.12-0.79-0.1-1.64-0.18-2.65c0.54,0.07,0.99,0,1.3,0.18c1.49,0.88,1.87,2.58,1.04,4.24c-0.5,0.99-0.98,1.98-1.46,2.97
		c0,0,0,0.01,0,0.01c-0.62,0.75-0.97,1.61-1.03,2.58C252.9,533.16,252.91,533.32,252.92,533.49z"/>
	<path class="st0" d="M245.7,528.36c0.84-0.8,1.87-1.19,2.96-1.5c0.77-0.21,1.49-0.54,1.86-1.27c0.17-0.33,0.2-0.81,0.1-1.17
		c-0.04-0.14-0.6-0.25-0.9-0.21c-0.85,0.12-1.68,0.32-2.52,0.49c1.57-1.21,3.38-1.99,5.22-2.65c2.48-0.9,4.27,0.44,4.21,3.05
		c-0.03,1.31-0.33,2.54-1.18,3.57c-0.48,0.59-1,1.16-1.5,1.74c0.49-0.99,0.97-1.98,1.46-2.97c0.84-1.67,0.45-3.36-1.04-4.24
		c-0.31-0.18-0.77-0.11-1.3-0.18c0.09,1.02,0.31,1.86,0.18,2.65c-0.11,0.73-0.6,1.4-0.92,2.1c0,0,0,0,0,0
		c-0.33,0.54-0.66,1.07-0.99,1.61c-0.48-1.21-1.43-1.59-2.65-1.44C247.7,528.06,246.7,528.22,245.7,528.36z"/>
	<path class="st0" d="M335.71,544.39c0.27,0.2,0.54,0.39,0.81,0.59c-0.66,0.88-1.51,0.79-2.41,0.47c-0.32-0.61-0.74-1.18-0.92-1.82
		c-0.2-0.72,0.09-1.33,1.06-1.64C334.75,542.81,335.23,543.6,335.71,544.39z"/>
	<path class="st0" d="M297.84,539.19c0.24,0.86,0.43,1.72,0.08,2.59c-0.79-0.33-1.58-0.65-2.36-1.01c-0.28-0.13-0.23-0.79,0.07-0.89
		C296.36,539.63,297.1,539.42,297.84,539.19z"/>
	<path class="st0" d="M233.68,514.85c0.26-1.57,1.23-2.97,1.08-4.63c0.87,0.85,0.88,1.82,0.29,2.8
		C234.67,513.66,234.15,514.24,233.68,514.85z"/>
	<path class="st0" d="M252.91,532.99c0.07-0.97,0.41-1.83,1.03-2.58C253.89,531.39,253.61,532.27,252.91,532.99z"/>
	<path class="st0" d="M247.2,524.7c-0.7,0.74-1.6,1.01-2.59,1.03c0-0.17,0.01-0.33,0.02-0.5
		C245.48,525.06,246.34,524.88,247.2,524.7z"/>
	<path class="st0" d="M244.62,525.24c-0.01,0.17-0.01,0.33-0.02,0.5c-0.16,0.02-0.32,0.03-0.48,0.02c-0.21-0.24-0.54-0.49-0.12-0.77
		C244.11,524.92,244.41,525.15,244.62,525.24z"/>
	<path class="st0" d="M310.4,540.85c-0.03,0.06-0.06,0.14-0.11,0.16c-0.05,0.02-0.13-0.03-0.19-0.05c0.06-0.09,0.11-0.17,0.17-0.26
		C310.31,540.74,310.35,540.8,310.4,540.85z"/>
	<polygon class="st0" points="232.02,529.86 231.9,529.97 231.86,529.82 	"/>
	<polygon class="st0" points="290.46,531.45 290.39,531.32 290.54,531.33 	"/>
	<path class="st0" d="M332.83,536.89c-0.05-0.03-0.12-0.06-0.16-0.1c-0.05-0.05-0.08-0.12-0.12-0.18c0.06,0.04,0.13,0.07,0.18,0.12
		C332.78,536.77,332.8,536.83,332.83,536.89z"/>
	<path class="st0" d="M252.33,541.69c-0.35-0.13-0.69-0.26-1.04-0.39C251.63,541.43,251.98,541.56,252.33,541.69z"/>
	<path class="st0" d="M275.64,539.2c-0.02,0.15-0.05,0.3-0.08,0.45C275.58,539.5,275.61,539.35,275.64,539.2z"/>
	<path class="st0" d="M227.54,520.56c-0.87,1.53-1.74,3.05-2.61,4.58c-0.16,0.02-0.33,0.05-0.49,0.08
		c-0.86,0.56-1.76,1.06-2.56,1.68c-0.82,0.64-1.63,1.25-2.69,1.43c0.17-0.53,0.35-1.05,0.52-1.58c0.19-0.34,0.39-0.69,0.58-1.03
		c0,0-0.01,0.01-0.01,0.01c0.84-0.87,1.42-1.88,1.57-3.1c-0.57-0.79-1.15-1.58-1.84-2.53c0.79-0.38,1.35-0.78,1.98-0.92
		c1.81-0.43,2.78-1.52,2.94-3.36c0.82-0.62,1.62-1.28,2.46-1.86c0.41-0.29,0.9-0.51,1.38-0.65c0.79-0.23,1.61,0.44,1.55,1.25
		c-0.04,0.5-0.22,0.99-0.38,1.48c-0.27,0.81-0.58,1.61-0.88,2.41c0,0,0.03,0,0.03,0C228.56,519.16,228.05,519.86,227.54,520.56z"/>
	<path class="st0" d="M224.93,515.83c-0.16,1.84-1.13,2.93-2.94,3.36c-0.63,0.15-1.19,0.55-1.98,0.92c0.69,0.95,1.27,1.74,1.84,2.53
		c-0.17,0-0.35,0-0.52,0c-1.57-0.68-2.84-0.24-3.83,1.08c-0.75,1-1.74,1.62-2.89,2.02c-0.8-1.27-1.86-1.74-3.29-1.04
		c0.55-1.11,1.38-1.89,2.53-2.39c0.85-0.37,1.67-0.86,2.39-1.44c1.42-1.14,3.03-1.95,4.74-2.42c1.49-0.41,2.61-1.15,3.54-2.3
		C224.63,516.02,224.79,515.93,224.93,515.83z"/>
	<path class="st0" d="M211.32,524.7c1.43-0.71,2.48-0.23,3.29,1.04c0,0,0,0,0,0c-0.85,0.31-1.54,0.84-2.07,1.57
		c0,0,0.01-0.01,0.01-0.01c-0.7,0.36-1.39,0.71-2.09,1.07c0,0,0.05-0.03,0.05-0.03c-1.26,0.58-2.33,1.41-3.13,2.55
		c-0.37,0.36-0.73,0.71-1.1,1.07c-0.53,0.13-0.91,0.41-0.99,0.99c-0.3,0.2-0.6,0.4-0.9,0.6c-1.04-0.14-1.81-0.52-1.72-1.76
		c0.48-0.64,0.97-1.29,1.45-1.93c0.39-0.23,0.78-0.45,1.17-0.68c0.13-0.12,0.25-0.25,0.38-0.37c0.73-0.25,1.46-0.51,2.2-0.73
		c0.93-0.29,1.41-0.92,1.53-1.86c0,0,0,0.04,0,0.04c0.35-0.23,0.71-0.47,1.06-0.7C210.75,525.26,211.04,524.98,211.32,524.7z"/>
	<path class="st0" d="M219.18,528.33c1.06-0.18,1.87-0.79,2.69-1.43c0.8-0.63,1.7-1.13,2.56-1.68c-0.95,1.8-2.51,2.99-4.12,4.11
		c-0.6,0.42-1.28,0.86-2.18,0.58C218.04,529.07,218.7,528.76,219.18,528.33z"/>
	<path class="st0" d="M202.67,531.79c-0.1,1.24,0.68,1.63,1.72,1.76c-0.46,0.21-0.9,0.52-1.38,0.61c-0.36,0.07-0.93-0.02-1.12-0.27
		c-0.2-0.25-0.17-0.82-0.03-1.16C202,532.37,202.39,532.1,202.67,531.79z"/>
	<path class="st0" d="M209.4,526.21c-0.12,0.94-0.6,1.58-1.53,1.86c-0.74,0.23-1.47,0.49-2.2,0.73
		C206.91,527.94,208.16,527.08,209.4,526.21z"/>
	<path class="st0" d="M207.38,530.89c0.81-1.14,1.87-1.97,3.13-2.55C209.79,529.59,208.72,530.41,207.38,530.89z"/>
	<path class="st0" d="M221.32,522.64c0.17,0,0.35,0,0.52,0c-0.15,1.22-0.73,2.22-1.57,3.1C220.62,524.7,220.97,523.67,221.32,522.64
		z"/>
	<path class="st0" d="M212.54,527.31c0.54-0.73,1.22-1.26,2.07-1.57C214.08,526.48,213.41,527.03,212.54,527.31z"/>
	<path class="st0" d="M210.46,528.37c0.7-0.36,1.39-0.71,2.09-1.07C211.85,527.65,211.16,528.01,210.46,528.37z"/>
	<path class="st0" d="M205.28,532.95c0.08-0.58,0.47-0.86,0.99-0.99C205.95,532.29,205.62,532.62,205.28,532.95z"/>
	<path class="st0" d="M205.29,529.18c-0.39,0.23-0.78,0.45-1.17,0.68C204.51,529.63,204.9,529.4,205.29,529.18z"/>
	<path class="st0" d="M220.29,525.73c-0.19,0.34-0.39,0.69-0.58,1.03C219.9,526.41,220.09,526.07,220.29,525.73z"/>
	<path class="st0" d="M210.46,525.54c-0.35,0.23-0.71,0.47-1.06,0.7C209.76,526.01,210.11,525.78,210.46,525.54z"/>
	<path class="st0" d="M335.18,532.45c-0.36-0.17-0.71-0.34-1.07-0.5C334.46,532.11,334.82,532.28,335.18,532.45z"/>
	<path class="st0" d="M333.6,531.43c-0.34-0.17-0.69-0.34-1.03-0.51C332.91,531.09,333.25,531.26,333.6,531.43z"/>
	<path class="st0" d="M227.54,520.56c0.51-0.7,1.02-1.4,1.54-2.1C228.79,519.33,228.27,520.02,227.54,520.56z"/>
	<path class="st0" d="M245.7,528.36c1-0.14,2-0.29,3.01-0.42c1.22-0.15,2.16,0.23,2.65,1.44c-0.2,0.65-0.39,1.31-0.61,1.96
		c-0.3,0.9-0.94,1.41-1.87,1.54c-0.51,0.07-1.02,0.12-1.53,0.11c-1.37-0.05-2.72,0-4.08,0.29c-1.32,0.28-2.14-0.01-2.26-0.62
		c-0.2-1.04,0.59-1.55,1.27-2.04C243.38,529.82,244.55,529.11,245.7,528.36z"/>
	<path class="st0" d="M252.34,527.77c0.25,0.3,0.5,0.6,1.05,1.26C252.35,528.69,252.47,528.15,252.34,527.77
		C252.34,527.77,252.34,527.77,252.34,527.77z"/>
</g>
</svg>
